<svg width="50" height="50" viewBox="0 0 50 50" fill="none" xmlns="http://www.w3.org/2000/svg">
<circle cx="25" cy="25" r="24" stroke="#00B18B" stroke-width="2"/>
<path d="M24.8048 26.1525V26.3875L24.9857 26.5374C26.6354 27.9046 27.7 30.0282 27.7 32.42C27.7 36.5744 24.4985 39.9 20.6 39.9C16.7015 39.9 13.5 36.5744 13.5 32.42C13.5 30.0282 14.5646 27.9046 16.2143 26.5374L16.3952 26.3875V26.1525V11.52C16.3952 11.1614 16.5888 10.9248 16.9346 10.7505C17.2968 10.5679 17.7564 10.5 18.0667 10.5H23.1333C23.9012 10.5 24.3088 10.7212 24.5219 10.9285C24.7446 11.1449 24.8048 11.3927 24.8048 11.52V26.1525Z" stroke="#00B18B"/>
<circle cx="20.6" cy="32.7999" r="3.6" fill="#00B18B"/>
<path d="M20.5996 32.8V14.8" stroke="#00B18B" stroke-linecap="round"/>
<path d="M29.7998 19.6H36.9998" stroke="#00B18B" stroke-linecap="round"/>
<path d="M29.7998 23.6H36.9998" stroke="#00B18B" stroke-linecap="round"/>
<path d="M29.7998 27.6H36.9998" stroke="#00B18B" stroke-width="2" stroke-linecap="round"/>
</svg>
