<svg width="50" height="50" viewBox="0 0 50 50" fill="none" xmlns="http://www.w3.org/2000/svg">
<circle cx="25" cy="25" r="24" stroke="#00B18B" stroke-width="2"/>
<path d="M14 14.65C14 14.2124 14.1738 13.7927 14.4833 13.4833C14.7927 13.1738 15.2124 13 15.65 13H34.35C34.7876 13 35.2073 13.1738 35.5167 13.4833C35.8262 13.7927 36 14.2124 36 14.65V21.25C36 21.6876 35.8262 22.1073 35.5167 22.4167C35.2073 22.7262 34.7876 22.9 34.35 22.9H15.65C15.2124 22.9 14.7927 22.7262 14.4833 22.4167C14.1738 22.1073 14 21.6876 14 21.25V14.65Z" stroke="#00B18B" stroke-linecap="round" stroke-linejoin="round"/>
<path d="M23.3502 17.4V16.3M26.6502 17.4V16.3M29.4002 17.4V16.3M20.6002 17.4V16.3M16.2002 13H33.8002M17.8502 13H32.1502V17.4H17.8502V13Z" stroke="#00B18B" stroke-linecap="round" stroke-linejoin="round"/>
<path d="M14 29.65C14 29.2124 14.1738 28.7927 14.4833 28.4833C14.7927 28.1738 15.2124 28 15.65 28H34.35C34.7876 28 35.2073 28.1738 35.5167 28.4833C35.8262 28.7927 36 29.2124 36 29.65V36.25C36 36.6876 35.8262 37.1073 35.5167 37.4167C35.2073 37.7262 34.7876 37.9 34.35 37.9H15.65C15.2124 37.9 14.7927 37.7262 14.4833 37.4167C14.1738 37.1073 14 36.6876 14 36.25V29.65Z" stroke="#00B18B" stroke-linecap="round" stroke-linejoin="round"/>
<path d="M23.3502 32.4V31.3M26.6502 32.4V31.3M29.4002 32.4V31.3M20.6002 32.4V31.3M16.2002 28H33.8002M17.8502 28H32.1502V32.4H17.8502V28Z" stroke="#00B18B" stroke-linecap="round" stroke-linejoin="round"/>
</svg>
