<svg width="50" height="50" viewBox="0 0 50 50" fill="none" xmlns="http://www.w3.org/2000/svg">
<circle cx="25" cy="25" r="24" stroke="#00B18B" stroke-width="2"/>
<path fill-rule="evenodd" clip-rule="evenodd" d="M12 20.1272C10.3431 20.1272 9 21.4703 9 23.1272V29.4314C9 31.0883 10.3431 32.4314 12 32.4314H13.0505H22.1831V20.1272H17.6359H12ZM17.6359 20.1272L15.7253 25.5103L19.5465 25.8948L13.0505 32.4314L14.5789 27.0483H10.7578L17.6359 20.1272Z" fill="#00B18B"/>
<path d="M41.0784 25.4004L36.0784 22.5136V28.2871L41.0784 25.4004ZM23.0615 25.9004H36.5784V24.9004H23.0615V25.9004Z" fill="#00B18B"/>
<path d="M28.3347 10.0202L28.2964 10.5187L28.3155 10.5202H28.3347V10.0202ZM22.6221 36.3863H22.1221V36.4277L22.1289 36.4685L22.6221 36.3863ZM35.8052 39.0229L30.8052 36.1362V41.9097L35.8052 39.0229ZM30.9714 10.0202L30.9714 9.52016H30.9714V10.0202ZM31.4108 10.0202L26.4109 7.13329L26.4107 12.9068L31.4108 10.0202ZM28.3731 9.52163C27.3651 9.44409 25.8424 9.55628 24.5491 10.1731C23.8965 10.4843 23.286 10.9321 22.8386 11.5648C22.388 12.2021 22.1221 13.0003 22.1221 13.9751H23.1221C23.1221 13.1921 23.3322 12.5988 23.6551 12.1421C23.9813 11.6808 24.442 11.3321 24.9796 11.0757C26.0665 10.5573 27.4001 10.4497 28.2964 10.5187L28.3731 9.52163ZM22.1221 13.9751C22.1221 13.9819 22.1221 13.9889 22.1221 13.9958C22.1221 14.0027 22.1221 14.0097 22.1221 14.0167C22.1221 14.0237 22.1221 14.0308 22.1221 14.0378C22.1221 14.0449 22.1221 14.052 22.1221 14.0592C22.1221 14.0663 22.1221 14.0735 22.1221 14.0807C22.1221 14.088 22.1221 14.0952 22.1221 14.1025C22.1221 14.1098 22.1221 14.1171 22.1221 14.1245C22.1221 14.1318 22.1221 14.1392 22.1221 14.1467C22.1221 14.1541 22.1221 14.1616 22.1221 14.1691C22.1221 14.1766 22.1221 14.1841 22.1221 14.1917C22.1221 14.1992 22.1221 14.2068 22.1221 14.2145C22.1221 14.2221 22.1221 14.2298 22.1221 14.2375C22.1221 14.2452 22.1221 14.253 22.1221 14.2607C22.1221 14.2685 22.1221 14.2763 22.1221 14.2842C22.1221 14.292 22.1221 14.2999 22.1221 14.3078C22.1221 14.3157 22.1221 14.3236 22.1221 14.3316C22.1221 14.3396 22.1221 14.3476 22.1221 14.3557C22.1221 14.3637 22.1221 14.3718 22.1221 14.3799C22.1221 14.388 22.1221 14.3962 22.1221 14.4044C22.1221 14.4125 22.1221 14.4208 22.1221 14.429C22.1221 14.4372 22.1221 14.4455 22.1221 14.4538C22.1221 14.4622 22.1221 14.4705 22.1221 14.4789C22.1221 14.4873 22.1221 14.4957 22.1221 14.5041C22.1221 14.5126 22.1221 14.5211 22.1221 14.5296C22.1221 14.5381 22.1221 14.5466 22.1221 14.5552C22.1221 14.5638 22.1221 14.5724 22.1221 14.581C22.1221 14.5897 22.1221 14.5984 22.1221 14.6071C22.1221 14.6158 22.1221 14.6245 22.1221 14.6333C22.1221 14.6421 22.1221 14.6509 22.1221 14.6597C22.1221 14.6686 22.1221 14.6774 22.1221 14.6863C22.1221 14.6952 22.1221 14.7042 22.1221 14.7131C22.1221 14.7221 22.1221 14.7311 22.1221 14.7401C22.1221 14.7492 22.1221 14.7582 22.1221 14.7673C22.1221 14.7764 22.1221 14.7855 22.1221 14.7947C22.1221 14.8039 22.1221 14.813 22.1221 14.8223C22.1221 14.8315 22.1221 14.8407 22.1221 14.85C22.1221 14.8593 22.1221 14.8686 22.1221 14.878C22.1221 14.8873 22.1221 14.8967 22.1221 14.9061C22.1221 14.9155 22.1221 14.9249 22.1221 14.9344C22.1221 14.9439 22.1221 14.9534 22.1221 14.9629C22.1221 14.9725 22.1221 14.982 22.1221 14.9916C22.1221 15.0012 22.1221 15.0108 22.1221 15.0205C22.1221 15.0302 22.1221 15.0398 22.1221 15.0496C22.1221 15.0593 22.1221 15.069 22.1221 15.0788C22.1221 15.0886 22.1221 15.0984 22.1221 15.1082C22.1221 15.1181 22.1221 15.1279 22.1221 15.1378C22.1221 15.1477 22.1221 15.1577 22.1221 15.1676C22.1221 15.1776 22.1221 15.1876 22.1221 15.1976C22.1221 15.2076 22.1221 15.2177 22.1221 15.2278C22.1221 15.2378 22.1221 15.2479 22.1221 15.2581C22.1221 15.2682 22.1221 15.2784 22.1221 15.2886C22.1221 15.2988 22.1221 15.309 22.1221 15.3193C22.1221 15.3295 22.1221 15.3398 22.1221 15.3501C22.1221 15.3605 22.1221 15.3708 22.1221 15.3812C22.1221 15.3915 22.1221 15.402 22.1221 15.4124C22.1221 15.4228 22.1221 15.4333 22.1221 15.4438C22.1221 15.4543 22.1221 15.4648 22.1221 15.4753C22.1221 15.4859 22.1221 15.4965 22.1221 15.5071C22.1221 15.5177 22.1221 15.5283 22.1221 15.539C22.1221 15.5496 22.1221 15.5603 22.1221 15.5711C22.1221 15.5818 22.1221 15.5925 22.1221 15.6033C22.1221 15.6141 22.1221 15.6249 22.1221 15.6357C22.1221 15.6466 22.1221 15.6574 22.1221 15.6683C22.1221 15.6792 22.1221 15.6901 22.1221 15.7011C22.1221 15.712 22.1221 15.723 22.1221 15.734C22.1221 15.745 22.1221 15.756 22.1221 15.7671C22.1221 15.7782 22.1221 15.7892 22.1221 15.8004C22.1221 15.8115 22.1221 15.8226 22.1221 15.8338C22.1221 15.8449 22.1221 15.8561 22.1221 15.8674C22.1221 15.8786 22.1221 15.8898 22.1221 15.9011C22.1221 15.9124 22.1221 15.9237 22.1221 15.935C22.1221 15.9464 22.1221 15.9577 22.1221 15.9691C22.1221 15.9805 22.1221 15.9919 22.1221 16.0034C22.1221 16.0148 22.1221 16.0263 22.1221 16.0378C22.1221 16.0493 22.1221 16.0608 22.1221 16.0723C22.1221 16.0839 22.1221 16.0955 22.1221 16.1071C22.1221 16.1187 22.1221 16.1303 22.1221 16.142C22.1221 16.1536 22.1221 16.1653 22.1221 16.177C22.1221 16.1887 22.1221 16.2004 22.1221 16.2122C22.1221 16.224 22.1221 16.2358 22.1221 16.2476C22.1221 16.2594 22.1221 16.2712 22.1221 16.2831C22.1221 16.2949 22.1221 16.3068 22.1221 16.3188C22.1221 16.3307 22.1221 16.3426 22.1221 16.3546C22.1221 16.3665 22.1221 16.3785 22.1221 16.3906C22.1221 16.4026 22.1221 16.4146 22.1221 16.4267C22.1221 16.4388 22.1221 16.4509 22.1221 16.463C22.1221 16.4751 22.1221 16.4872 22.1221 16.4994C22.1221 16.5116 22.1221 16.5238 22.1221 16.536C22.1221 16.5482 22.1221 16.5605 22.1221 16.5728C22.1221 16.585 22.1221 16.5973 22.1221 16.6096C22.1221 16.622 22.1221 16.6343 22.1221 16.6467C22.1221 16.6591 22.1221 16.6715 22.1221 16.6839C22.1221 16.6963 22.1221 16.7087 22.1221 16.7212C22.1221 16.7337 22.1221 16.7462 22.1221 16.7587C22.1221 16.7712 22.1221 16.7838 22.1221 16.7963C22.1221 16.8089 22.1221 16.8215 22.1221 16.8341C22.1221 16.8467 22.1221 16.8594 22.1221 16.872C22.1221 16.8847 22.1221 16.8974 22.1221 16.9101C22.1221 16.9228 22.1221 16.9355 22.1221 16.9483C22.1221 16.9611 22.1221 16.9738 22.1221 16.9866C22.1221 16.9994 22.1221 17.0123 22.1221 17.0251C22.1221 17.038 22.1221 17.0509 22.1221 17.0638C22.1221 17.0767 22.1221 17.0896 22.1221 17.1025C22.1221 17.1155 22.1221 17.1285 22.1221 17.1415C22.1221 17.1544 22.1221 17.1675 22.1221 17.1805C22.1221 17.1935 22.1221 17.2066 22.1221 17.2197C22.1221 17.2328 22.1221 17.2459 22.1221 17.259C22.1221 17.2722 22.1221 17.2853 22.1221 17.2985C22.1221 17.3117 22.1221 17.3249 22.1221 17.3381C22.1221 17.3513 22.1221 17.3646 22.1221 17.3778C22.1221 17.3911 22.1221 17.4044 22.1221 17.4177C22.1221 17.431 22.1221 17.4443 22.1221 17.4577C22.1221 17.4711 22.1221 17.4844 22.1221 17.4978C22.1221 17.5112 22.1221 17.5247 22.1221 17.5381C22.1221 17.5516 22.1221 17.565 22.1221 17.5785C22.1221 17.592 22.1221 17.6055 22.1221 17.619C22.1221 17.6326 22.1221 17.6461 22.1221 17.6597C22.1221 17.6733 22.1221 17.6869 22.1221 17.7005C22.1221 17.7141 22.1221 17.7278 22.1221 17.7414C22.1221 17.7551 22.1221 17.7688 22.1221 17.7825C22.1221 17.7962 22.1221 17.8099 22.1221 17.8237C22.1221 17.8374 22.1221 17.8512 22.1221 17.865C22.1221 17.8787 22.1221 17.8926 22.1221 17.9064C22.1221 17.9202 22.1221 17.9341 22.1221 17.9479C22.1221 17.9618 22.1221 17.9757 22.1221 17.9896C22.1221 18.0035 22.1221 18.0175 22.1221 18.0314C22.1221 18.0454 22.1221 18.0594 22.1221 18.0733C22.1221 18.0873 22.1221 18.1014 22.1221 18.1154C22.1221 18.1294 22.1221 18.1435 22.1221 18.1576C22.1221 18.1716 22.1221 18.1857 22.1221 18.1999C22.1221 18.214 22.1221 18.2281 22.1221 18.2423C22.1221 18.2564 22.1221 18.2706 22.1221 18.2848C22.1221 18.299 22.1221 18.3132 22.1221 18.3274C22.1221 18.3417 22.1221 18.3559 22.1221 18.3702C22.1221 18.3845 22.1221 18.3988 22.1221 18.4131C22.1221 18.4274 22.1221 18.4417 22.1221 18.4561C22.1221 18.4704 22.1221 18.4848 22.1221 18.4992C22.1221 18.5136 22.1221 18.528 22.1221 18.5424C22.1221 18.5569 22.1221 18.5713 22.1221 18.5858C22.1221 18.6003 22.1221 18.6147 22.1221 18.6292C22.1221 18.6438 22.1221 18.6583 22.1221 18.6728C22.1221 18.6874 22.1221 18.7019 22.1221 18.7165C22.1221 18.7311 22.1221 18.7457 22.1221 18.7603C22.1221 18.7749 22.1221 18.7895 22.1221 18.8042C22.1221 18.8189 22.1221 18.8335 22.1221 18.8482C22.1221 18.8629 22.1221 18.8776 22.1221 18.8923C22.1221 18.9071 22.1221 18.9218 22.1221 18.9366C22.1221 18.9513 22.1221 18.9661 22.1221 18.9809C22.1221 18.9957 22.1221 19.0105 22.1221 19.0254C22.1221 19.0402 22.1221 19.055 22.1221 19.0699C22.1221 19.0848 22.1221 19.0997 22.1221 19.1146C22.1221 19.1295 22.1221 19.1444 22.1221 19.1593C22.1221 19.1743 22.1221 19.1892 22.1221 19.2042C22.1221 19.2192 22.1221 19.2342 22.1221 19.2492C22.1221 19.2642 22.1221 19.2792 22.1221 19.2943C22.1221 19.3093 22.1221 19.3244 22.1221 19.3394C22.1221 19.3545 22.1221 19.3696 22.1221 19.3847C22.1221 19.3998 22.1221 19.4149 22.1221 19.4301C22.1221 19.4452 22.1221 19.4604 22.1221 19.4756C22.1221 19.4907 22.1221 19.5059 22.1221 19.5211C22.1221 19.5363 22.1221 19.5516 22.1221 19.5668C22.1221 19.5821 22.1221 19.5973 22.1221 19.6126C22.1221 19.6279 22.1221 19.6432 22.1221 19.6585C22.1221 19.6738 22.1221 19.6891 22.1221 19.7044C22.1221 19.7198 22.1221 19.7351 22.1221 19.7505C22.1221 19.7659 22.1221 19.7812 22.1221 19.7966C22.1221 19.812 22.1221 19.8275 22.1221 19.8429C22.1221 19.8583 22.1221 19.8738 22.1221 19.8892C22.1221 19.9047 22.1221 19.9202 22.1221 19.9357C22.1221 19.9512 22.1221 19.9667 22.1221 19.9822C22.1221 19.9977 22.1221 20.0133 22.1221 20.0288C22.1221 20.0444 22.1221 20.0599 22.1221 20.0755C22.1221 20.0911 22.1221 20.1067 22.1221 20.1223C22.1221 20.1379 22.1221 20.1536 22.1221 20.1692C22.1221 20.1848 22.1221 20.2005 22.1221 20.2162C22.1221 20.2319 22.1221 20.2475 22.1221 20.2632C22.1221 20.2789 22.1221 20.2947 22.1221 20.3104C22.1221 20.3261 22.1221 20.3419 22.1221 20.3576C22.1221 20.3734 22.1221 20.3892 22.1221 20.4049C22.1221 20.4207 22.1221 20.4365 22.1221 20.4523C22.1221 20.4682 22.1221 20.484 22.1221 20.4998C22.1221 20.5157 22.1221 20.5315 22.1221 20.5474C22.1221 20.5633 22.1221 20.5792 22.1221 20.5951C22.1221 20.611 22.1221 20.6269 22.1221 20.6428C22.1221 20.6587 22.1221 20.6747 22.1221 20.6906C22.1221 20.7066 22.1221 20.7225 22.1221 20.7385C22.1221 20.7545 22.1221 20.7705 22.1221 20.7865C22.1221 20.8025 22.1221 20.8185 22.1221 20.8345C22.1221 20.8506 22.1221 20.8666 22.1221 20.8827C22.1221 20.8987 22.1221 20.9148 22.1221 20.9309C22.1221 20.947 22.1221 20.9631 22.1221 20.9792C22.1221 20.9953 22.1221 21.0114 22.1221 21.0275C22.1221 21.0437 22.1221 21.0598 22.1221 21.076C22.1221 21.0921 22.1221 21.1083 22.1221 21.1245C22.1221 21.1406 22.1221 21.1568 22.1221 21.173C22.1221 21.1893 22.1221 21.2055 22.1221 21.2217C22.1221 21.2379 22.1221 21.2542 22.1221 21.2704C22.1221 21.2867 22.1221 21.303 22.1221 21.3192C22.1221 21.3355 22.1221 21.3518 22.1221 21.3681C22.1221 21.3844 22.1221 21.4007 22.1221 21.417C22.1221 21.4334 22.1221 21.4497 22.1221 21.4661C22.1221 21.4824 22.1221 21.4988 22.1221 21.5151C22.1221 21.5315 22.1221 21.5479 22.1221 21.5643C22.1221 21.5807 22.1221 21.5971 22.1221 21.6135C22.1221 21.6299 22.1221 21.6463 22.1221 21.6628C22.1221 21.6792 22.1221 21.6957 22.1221 21.7121C22.1221 21.7286 22.1221 21.745 22.1221 21.7615C22.1221 21.778 22.1221 21.7945 22.1221 21.811C22.1221 21.8275 22.1221 21.844 22.1221 21.8605C22.1221 21.8771 22.1221 21.8936 22.1221 21.9101C22.1221 21.9267 22.1221 21.9432 22.1221 21.9598C22.1221 21.9764 22.1221 21.9929 22.1221 22.0095C22.1221 22.0261 22.1221 22.0427 22.1221 22.0593C22.1221 22.0759 22.1221 22.0925 22.1221 22.1092C22.1221 22.1258 22.1221 22.1424 22.1221 22.1591C22.1221 22.1757 22.1221 22.1924 22.1221 22.209C22.1221 22.2257 22.1221 22.2424 22.1221 22.259C22.1221 22.2757 22.1221 22.2924 22.1221 22.3091C22.1221 22.3258 22.1221 22.3425 22.1221 22.3592C22.1221 22.376 22.1221 22.3927 22.1221 22.4094C22.1221 22.4262 22.1221 22.4429 22.1221 22.4597C22.1221 22.4764 22.1221 22.4932 22.1221 22.51C22.1221 22.5267 22.1221 22.5435 22.1221 22.5603C22.1221 22.5771 22.1221 22.5939 22.1221 22.6107C22.1221 22.6275 22.1221 22.6443 22.1221 22.6612C22.1221 22.678 22.1221 22.6948 22.1221 22.7117C22.1221 22.7285 22.1221 22.7454 22.1221 22.7622C22.1221 22.7791 22.1221 22.796 22.1221 22.8128C22.1221 22.8297 22.1221 22.8466 22.1221 22.8635C22.1221 22.8804 22.1221 22.8973 22.1221 22.9142C22.1221 22.9311 22.1221 22.948 22.1221 22.9649C22.1221 22.9819 22.1221 22.9988 22.1221 23.0157C22.1221 23.0327 22.1221 23.0496 22.1221 23.0666C22.1221 23.0835 22.1221 23.1005 22.1221 23.1174C22.1221 23.1344 22.1221 23.1514 22.1221 23.1684C22.1221 23.1854 22.1221 23.2024 22.1221 23.2194C22.1221 23.2364 22.1221 23.2534 22.1221 23.2704C22.1221 23.2874 22.1221 23.3044 22.1221 23.3214C22.1221 23.3385 22.1221 23.3555 22.1221 23.3725C22.1221 23.3896 22.1221 23.4066 22.1221 23.4237C22.1221 23.4407 22.1221 23.4578 22.1221 23.4749C22.1221 23.4919 22.1221 23.509 22.1221 23.5261C22.1221 23.5432 22.1221 23.5602 22.1221 23.5773C22.1221 23.5944 22.1221 23.6115 22.1221 23.6286C22.1221 23.6457 22.1221 23.6629 22.1221 23.68C22.1221 23.6971 22.1221 23.7142 22.1221 23.7313C22.1221 23.7485 22.1221 23.7656 22.1221 23.7827C22.1221 23.7999 22.1221 23.817 22.1221 23.8342C22.1221 23.8513 22.1221 23.8685 22.1221 23.8857C22.1221 23.9028 22.1221 23.92 22.1221 23.9372C22.1221 23.9544 22.1221 23.9715 22.1221 23.9887C22.1221 24.0059 22.1221 24.0231 22.1221 24.0403C22.1221 24.0575 22.1221 24.0747 22.1221 24.0919C22.1221 24.1091 22.1221 24.1263 22.1221 24.1435C22.1221 24.1608 22.1221 24.178 22.1221 24.1952C22.1221 24.2124 22.1221 24.2297 22.1221 24.2469C22.1221 24.2641 22.1221 24.2814 22.1221 24.2986C22.1221 24.3159 22.1221 24.3331 22.1221 24.3504C22.1221 24.3676 22.1221 24.3849 22.1221 24.4022C22.1221 24.4194 22.1221 24.4367 22.1221 24.454C22.1221 24.4712 22.1221 24.4885 22.1221 24.5058C22.1221 24.5231 22.1221 24.5404 22.1221 24.5577C22.1221 24.5749 22.1221 24.5922 22.1221 24.6095C22.1221 24.6268 22.1221 24.6441 22.1221 24.6614C22.1221 24.6787 22.1221 24.6961 22.1221 24.7134C22.1221 24.7307 22.1221 24.748 22.1221 24.7653C22.1221 24.7826 22.1221 24.8 22.1221 24.8173C22.1221 24.8346 22.1221 24.8519 22.1221 24.8693C22.1221 24.8866 22.1221 24.9039 22.1221 24.9213C22.1221 24.9386 22.1221 24.956 22.1221 24.9733C22.1221 24.9907 22.1221 25.008 22.1221 25.0254C22.1221 25.0427 22.1221 25.0601 22.1221 25.0774C22.1221 25.0948 22.1221 25.1122 22.1221 25.1295C22.1221 25.1469 22.1221 25.1642 22.1221 25.1816C22.1221 25.199 22.1221 25.2164 22.1221 25.2337C22.1221 25.2511 22.1221 25.2685 22.1221 25.2859C22.1221 25.3032 22.1221 25.3206 22.1221 25.338C22.1221 25.3554 22.1221 25.3728 22.1221 25.3902C22.1221 25.4075 22.1221 25.4249 22.1221 25.4423C22.1221 25.4597 22.1221 25.4771 22.1221 25.4945C22.1221 25.5119 22.1221 25.5293 22.1221 25.5467C22.1221 25.5641 22.1221 25.5815 22.1221 25.5989C22.1221 25.6163 22.1221 25.6337 22.1221 25.6511C22.1221 25.6685 22.1221 25.6859 22.1221 25.7033C22.1221 25.7207 22.1221 25.7381 22.1221 25.7556C22.1221 25.773 22.1221 25.7904 22.1221 25.8078C22.1221 25.8252 22.1221 25.8426 22.1221 25.86C22.1221 25.8774 22.1221 25.8949 22.1221 25.9123C22.1221 25.9297 22.1221 25.9471 22.1221 25.9645C22.1221 25.9819 22.1221 25.9994 22.1221 26.0168C22.1221 26.0342 22.1221 26.0516 22.1221 26.069C22.1221 26.0865 22.1221 26.1039 22.1221 26.1213C22.1221 26.1387 22.1221 26.1562 22.1221 26.1736C22.1221 26.191 22.1221 26.2084 22.1221 26.2259C22.1221 26.2433 22.1221 26.2607 22.1221 26.2781C22.1221 26.2955 22.1221 26.313 22.1221 26.3304C22.1221 26.3478 22.1221 26.3652 22.1221 26.3827C22.1221 26.4001 22.1221 26.4175 22.1221 26.4349C22.1221 26.4523 22.1221 26.4698 22.1221 26.4872C22.1221 26.5046 22.1221 26.522 22.1221 26.5395C22.1221 26.5569 22.1221 26.5743 22.1221 26.5917C22.1221 26.6091 22.1221 26.6266 22.1221 26.644C22.1221 26.6614 22.1221 26.6788 22.1221 26.6962C22.1221 26.7136 22.1221 26.7311 22.1221 26.7485C22.1221 26.7659 22.1221 26.7833 22.1221 26.8007C22.1221 26.8181 22.1221 26.8355 22.1221 26.8529C22.1221 26.8703 22.1221 26.8878 22.1221 26.9052C22.1221 26.9226 22.1221 26.94 22.1221 26.9574C22.1221 26.9748 22.1221 26.9922 22.1221 27.0096C22.1221 27.027 22.1221 27.0444 22.1221 27.0618C22.1221 27.0792 22.1221 27.0966 22.1221 27.114C22.1221 27.1314 22.1221 27.1487 22.1221 27.1661C22.1221 27.1835 22.1221 27.2009 22.1221 27.2183C22.1221 27.2357 22.1221 27.2531 22.1221 27.2704C22.1221 27.2878 22.1221 27.3052 22.1221 27.3226C22.1221 27.34 22.1221 27.3573 22.1221 27.3747C22.1221 27.3921 22.1221 27.4094 22.1221 27.4268C22.1221 27.4442 22.1221 27.4615 22.1221 27.4789C22.1221 27.4962 22.1221 27.5136 22.1221 27.531C22.1221 27.5483 22.1221 27.5657 22.1221 27.583C22.1221 27.6004 22.1221 27.6177 22.1221 27.6351C22.1221 27.6524 22.1221 27.6697 22.1221 27.6871C22.1221 27.7044 22.1221 27.7217 22.1221 27.7391C22.1221 27.7564 22.1221 27.7737 22.1221 27.791C22.1221 27.8084 22.1221 27.8257 22.1221 27.843C22.1221 27.8603 22.1221 27.8776 22.1221 27.8949C22.1221 27.9123 22.1221 27.9296 22.1221 27.9469C22.1221 27.9642 22.1221 27.9815 22.1221 27.9987C22.1221 28.016 22.1221 28.0333 22.1221 28.0506C22.1221 28.0679 22.1221 28.0852 22.1221 28.1025C22.1221 28.1197 22.1221 28.137 22.1221 28.1543C22.1221 28.1715 22.1221 28.1888 22.1221 28.2061C22.1221 28.2233 22.1221 28.2406 22.1221 28.2578C22.1221 28.2751 22.1221 28.2923 22.1221 28.3096C22.1221 28.3268 22.1221 28.344 22.1221 28.3613C22.1221 28.3785 22.1221 28.3957 22.1221 28.413C22.1221 28.4302 22.1221 28.4474 22.1221 28.4646C22.1221 28.4818 22.1221 28.499 22.1221 28.5162C22.1221 28.5334 22.1221 28.5506 22.1221 28.5678C22.1221 28.585 22.1221 28.6022 22.1221 28.6194C22.1221 28.6365 22.1221 28.6537 22.1221 28.6709C22.1221 28.6881 22.1221 28.7052 22.1221 28.7224C22.1221 28.7395 22.1221 28.7567 22.1221 28.7738C22.1221 28.791 22.1221 28.8081 22.1221 28.8253C22.1221 28.8424 22.1221 28.8595 22.1221 28.8766C22.1221 28.8938 22.1221 28.9109 22.1221 28.928C22.1221 28.9451 22.1221 28.9622 22.1221 28.9793C22.1221 28.9964 22.1221 29.0135 22.1221 29.0306C22.1221 29.0477 22.1221 29.0648 22.1221 29.0818C22.1221 29.0989 22.1221 29.116 22.1221 29.133C22.1221 29.1501 22.1221 29.1671 22.1221 29.1842C22.1221 29.2012 22.1221 29.2183 22.1221 29.2353C22.1221 29.2523 22.1221 29.2694 22.1221 29.2864C22.1221 29.3034 22.1221 29.3204 22.1221 29.3374C22.1221 29.3544 22.1221 29.3714 22.1221 29.3884C22.1221 29.4054 22.1221 29.4224 22.1221 29.4394C22.1221 29.4563 22.1221 29.4733 22.1221 29.4903C22.1221 29.5072 22.1221 29.5242 22.1221 29.5411C22.1221 29.5581 22.1221 29.575 22.1221 29.5919C22.1221 29.6089 22.1221 29.6258 22.1221 29.6427C22.1221 29.6596 22.1221 29.6765 22.1221 29.6934C22.1221 29.7103 22.1221 29.7272 22.1221 29.7441C22.1221 29.761 22.1221 29.7778 22.1221 29.7947C22.1221 29.8116 22.1221 29.8284 22.1221 29.8453C22.1221 29.8621 22.1221 29.879 22.1221 29.8958C22.1221 29.9126 22.1221 29.9295 22.1221 29.9463C22.1221 29.9631 22.1221 29.9799 22.1221 29.9967C22.1221 30.0135 22.1221 30.0303 22.1221 30.0471C22.1221 30.0639 22.1221 30.0806 22.1221 30.0974C22.1221 30.1142 22.1221 30.1309 22.1221 30.1477C22.1221 30.1644 22.1221 30.1811 22.1221 30.1979C22.1221 30.2146 22.1221 30.2313 22.1221 30.248C22.1221 30.2647 22.1221 30.2814 22.1221 30.2981C22.1221 30.3148 22.1221 30.3315 22.1221 30.3482C22.1221 30.3648 22.1221 30.3815 22.1221 30.3981C22.1221 30.4148 22.1221 30.4314 22.1221 30.4481C22.1221 30.4647 22.1221 30.4813 22.1221 30.4979C22.1221 30.5146 22.1221 30.5312 22.1221 30.5478C22.1221 30.5643 22.1221 30.5809 22.1221 30.5975C22.1221 30.6141 22.1221 30.6306 22.1221 30.6472C22.1221 30.6637 22.1221 30.6803 22.1221 30.6968C22.1221 30.7133 22.1221 30.7299 22.1221 30.7464C22.1221 30.7629 22.1221 30.7794 22.1221 30.7959C22.1221 30.8124 22.1221 30.8288 22.1221 30.8453C22.1221 30.8618 22.1221 30.8782 22.1221 30.8947C22.1221 30.9111 22.1221 30.9276 22.1221 30.944C22.1221 30.9604 22.1221 30.9768 22.1221 30.9932C22.1221 31.0096 22.1221 31.026 22.1221 31.0424C22.1221 31.0588 22.1221 31.0752 22.1221 31.0915C22.1221 31.1079 22.1221 31.1242 22.1221 31.1406C22.1221 31.1569 22.1221 31.1732 22.1221 31.1895C22.1221 31.2058 22.1221 31.2221 22.1221 31.2384C22.1221 31.2547 22.1221 31.271 22.1221 31.2873C22.1221 31.3035 22.1221 31.3198 22.1221 31.336C22.1221 31.3523 22.1221 31.3685 22.1221 31.3847C22.1221 31.4009 22.1221 31.4171 22.1221 31.4333C22.1221 31.4495 22.1221 31.4657 22.1221 31.4819C22.1221 31.498 22.1221 31.5142 22.1221 31.5303C22.1221 31.5465 22.1221 31.5626 22.1221 31.5787C22.1221 31.5948 22.1221 31.6109 22.1221 31.627C22.1221 31.6431 22.1221 31.6592 22.1221 31.6753C22.1221 31.6913 22.1221 31.7074 22.1221 31.7234C22.1221 31.7395 22.1221 31.7555 22.1221 31.7715C22.1221 31.7875 22.1221 31.8035 22.1221 31.8195C22.1221 31.8355 22.1221 31.8515 22.1221 31.8675C22.1221 31.8834 22.1221 31.8994 22.1221 31.9153C22.1221 31.9312 22.1221 31.9472 22.1221 31.9631C22.1221 31.979 22.1221 31.9949 22.1221 32.0108C22.1221 32.0266 22.1221 32.0425 22.1221 32.0584C22.1221 32.0742 22.1221 32.0901 22.1221 32.1059C22.1221 32.1217 22.1221 32.1375 22.1221 32.1533C22.1221 32.1691 22.1221 32.1849 22.1221 32.2007C22.1221 32.2165 22.1221 32.2322 22.1221 32.2479C22.1221 32.2637 22.1221 32.2794 22.1221 32.2951C22.1221 32.3108 22.1221 32.3265 22.1221 32.3422C22.1221 32.3579 22.1221 32.3736 22.1221 32.3892C22.1221 32.4049 22.1221 32.4205 22.1221 32.4362C22.1221 32.4518 22.1221 32.4674 22.1221 32.483C22.1221 32.4986 22.1221 32.5142 22.1221 32.5297C22.1221 32.5453 22.1221 32.5609 22.1221 32.5764C22.1221 32.5919 22.1221 32.6075 22.1221 32.623C22.1221 32.6385 22.1221 32.654 22.1221 32.6694C22.1221 32.6849 22.1221 32.7004 22.1221 32.7158C22.1221 32.7313 22.1221 32.7467 22.1221 32.7621C22.1221 32.7775 22.1221 32.7929 22.1221 32.8083C22.1221 32.8237 22.1221 32.8391 22.1221 32.8544C22.1221 32.8698 22.1221 32.8851 22.1221 32.9004C22.1221 32.9157 22.1221 32.931 22.1221 32.9463C22.1221 32.9616 22.1221 32.9769 22.1221 32.9921C22.1221 33.0074 22.1221 33.0226 22.1221 33.0378C22.1221 33.0531 22.1221 33.0683 22.1221 33.0835C22.1221 33.0987 22.1221 33.1138 22.1221 33.129C22.1221 33.1441 22.1221 33.1593 22.1221 33.1744C22.1221 33.1895 22.1221 33.2046 22.1221 33.2197C22.1221 33.2348 22.1221 33.2499 22.1221 33.2649C22.1221 33.28 22.1221 33.295 22.1221 33.3101C22.1221 33.3251 22.1221 33.3401 22.1221 33.3551C22.1221 33.3701 22.1221 33.385 22.1221 33.4C22.1221 33.4149 22.1221 33.4299 22.1221 33.4448C22.1221 33.4597 22.1221 33.4746 22.1221 33.4895C22.1221 33.5044 22.1221 33.5192 22.1221 33.5341C22.1221 33.5489 22.1221 33.5638 22.1221 33.5786C22.1221 33.5934 22.1221 33.6082 22.1221 33.623C22.1221 33.6377 22.1221 33.6525 22.1221 33.6672C22.1221 33.682 22.1221 33.6967 22.1221 33.7114C22.1221 33.7261 22.1221 33.7408 22.1221 33.7555C22.1221 33.7701 22.1221 33.7848 22.1221 33.7994C22.1221 33.8141 22.1221 33.8287 22.1221 33.8433C22.1221 33.8579 22.1221 33.8724 22.1221 33.887C22.1221 33.9016 22.1221 33.9161 22.1221 33.9306C22.1221 33.9451 22.1221 33.9596 22.1221 33.9741C22.1221 33.9886 22.1221 34.0031 22.1221 34.0175C22.1221 34.032 22.1221 34.0464 22.1221 34.0608C22.1221 34.0752 22.1221 34.0896 22.1221 34.104C22.1221 34.1183 22.1221 34.1327 22.1221 34.147C22.1221 34.1613 22.1221 34.1756 22.1221 34.1899C22.1221 34.2042 22.1221 34.2185 22.1221 34.2327C22.1221 34.247 22.1221 34.2612 22.1221 34.2754C22.1221 34.2897 22.1221 34.3039 22.1221 34.318C22.1221 34.3322 22.1221 34.3464 22.1221 34.3605C22.1221 34.3746 22.1221 34.3887 22.1221 34.4028C22.1221 34.4169 22.1221 34.431 22.1221 34.445C22.1221 34.4591 22.1221 34.4731 22.1221 34.4871C22.1221 34.5012 22.1221 34.5152 22.1221 34.5291C22.1221 34.5431 22.1221 34.557 22.1221 34.571C22.1221 34.5849 22.1221 34.5988 22.1221 34.6127C22.1221 34.6266 22.1221 34.6405 22.1221 34.6543C22.1221 34.6682 22.1221 34.682 22.1221 34.6958C22.1221 34.7096 22.1221 34.7234 22.1221 34.7372C22.1221 34.7509 22.1221 34.7647 22.1221 34.7784C22.1221 34.7921 22.1221 34.8058 22.1221 34.8195C22.1221 34.8332 22.1221 34.8468 22.1221 34.8605C22.1221 34.8741 22.1221 34.8877 22.1221 34.9013C22.1221 34.9149 22.1221 34.9285 22.1221 34.942C22.1221 34.9556 22.1221 34.9691 22.1221 34.9826C22.1221 34.9961 22.1221 35.0096 22.1221 35.0231C22.1221 35.0365 22.1221 35.05 22.1221 35.0634C22.1221 35.0768 22.1221 35.0902 22.1221 35.1036C22.1221 35.117 22.1221 35.1303 22.1221 35.1436C22.1221 35.157 22.1221 35.1703 22.1221 35.1836C22.1221 35.1969 22.1221 35.2101 22.1221 35.2234C22.1221 35.2366 22.1221 35.2498 22.1221 35.263C22.1221 35.2762 22.1221 35.2894 22.1221 35.3025C22.1221 35.3157 22.1221 35.3288 22.1221 35.3419C22.1221 35.355 22.1221 35.3681 22.1221 35.3812C22.1221 35.3942 22.1221 35.4073 22.1221 35.4203C22.1221 35.4333 22.1221 35.4463 22.1221 35.4593C22.1221 35.4722 22.1221 35.4852 22.1221 35.4981C22.1221 35.511 22.1221 35.5239 22.1221 35.5368C22.1221 35.5497 22.1221 35.5625 22.1221 35.5753C22.1221 35.5882 22.1221 35.601 22.1221 35.6137C22.1221 35.6265 22.1221 35.6393 22.1221 35.652C22.1221 35.6647 22.1221 35.6774 22.1221 35.6901C22.1221 35.7028 22.1221 35.7155 22.1221 35.7281C22.1221 35.7407 22.1221 35.7534 22.1221 35.7659C22.1221 35.7785 22.1221 35.7911 22.1221 35.8036C22.1221 35.8162 22.1221 35.8287 22.1221 35.8412C22.1221 35.8537 22.1221 35.8661 22.1221 35.8786C22.1221 35.891 22.1221 35.9034 22.1221 35.9158C22.1221 35.9282 22.1221 35.9406 22.1221 35.9529C22.1221 35.9653 22.1221 35.9776 22.1221 35.9899C22.1221 36.0022 22.1221 36.0144 22.1221 36.0267C22.1221 36.0389 22.1221 36.0511 22.1221 36.0633C22.1221 36.0755 22.1221 36.0877 22.1221 36.0998C22.1221 36.112 22.1221 36.1241 22.1221 36.1362C22.1221 36.1483 22.1221 36.1603 22.1221 36.1724C22.1221 36.1844 22.1221 36.1964 22.1221 36.2084C22.1221 36.2204 22.1221 36.2324 22.1221 36.2443C22.1221 36.2563 22.1221 36.2682 22.1221 36.2801C22.1221 36.2919 22.1221 36.3038 22.1221 36.3156C22.1221 36.3275 22.1221 36.3393 22.1221 36.3511C22.1221 36.3628 22.1221 36.3746 22.1221 36.3863H23.1221C23.1221 36.3746 23.1221 36.3628 23.1221 36.3511C23.1221 36.3393 23.1221 36.3275 23.1221 36.3156C23.1221 36.3038 23.1221 36.2919 23.1221 36.2801C23.1221 36.2682 23.1221 36.2563 23.1221 36.2443C23.1221 36.2324 23.1221 36.2204 23.1221 36.2084C23.1221 36.1964 23.1221 36.1844 23.1221 36.1724C23.1221 36.1603 23.1221 36.1483 23.1221 36.1362C23.1221 36.1241 23.1221 36.112 23.1221 36.0998C23.1221 36.0877 23.1221 36.0755 23.1221 36.0633C23.1221 36.0511 23.1221 36.0389 23.1221 36.0267C23.1221 36.0144 23.1221 36.0022 23.1221 35.9899C23.1221 35.9776 23.1221 35.9653 23.1221 35.9529C23.1221 35.9406 23.1221 35.9282 23.1221 35.9158C23.1221 35.9034 23.1221 35.891 23.1221 35.8786C23.1221 35.8661 23.1221 35.8537 23.1221 35.8412C23.1221 35.8287 23.1221 35.8162 23.1221 35.8036C23.1221 35.7911 23.1221 35.7785 23.1221 35.7659C23.1221 35.7534 23.1221 35.7407 23.1221 35.7281C23.1221 35.7155 23.1221 35.7028 23.1221 35.6901C23.1221 35.6774 23.1221 35.6647 23.1221 35.652C23.1221 35.6393 23.1221 35.6265 23.1221 35.6137C23.1221 35.601 23.1221 35.5882 23.1221 35.5753C23.1221 35.5625 23.1221 35.5497 23.1221 35.5368C23.1221 35.5239 23.1221 35.511 23.1221 35.4981C23.1221 35.4852 23.1221 35.4722 23.1221 35.4593C23.1221 35.4463 23.1221 35.4333 23.1221 35.4203C23.1221 35.4073 23.1221 35.3942 23.1221 35.3812C23.1221 35.3681 23.1221 35.355 23.1221 35.3419C23.1221 35.3288 23.1221 35.3157 23.1221 35.3025C23.1221 35.2894 23.1221 35.2762 23.1221 35.263C23.1221 35.2498 23.1221 35.2366 23.1221 35.2234C23.1221 35.2101 23.1221 35.1969 23.1221 35.1836C23.1221 35.1703 23.1221 35.157 23.1221 35.1436C23.1221 35.1303 23.1221 35.117 23.1221 35.1036C23.1221 35.0902 23.1221 35.0768 23.1221 35.0634C23.1221 35.05 23.1221 35.0365 23.1221 35.0231C23.1221 35.0096 23.1221 34.9961 23.1221 34.9826C23.1221 34.9691 23.1221 34.9556 23.1221 34.942C23.1221 34.9285 23.1221 34.9149 23.1221 34.9013C23.1221 34.8877 23.1221 34.8741 23.1221 34.8605C23.1221 34.8468 23.1221 34.8332 23.1221 34.8195C23.1221 34.8058 23.1221 34.7921 23.1221 34.7784C23.1221 34.7647 23.1221 34.7509 23.1221 34.7372C23.1221 34.7234 23.1221 34.7096 23.1221 34.6958C23.1221 34.682 23.1221 34.6682 23.1221 34.6543C23.1221 34.6405 23.1221 34.6266 23.1221 34.6127C23.1221 34.5988 23.1221 34.5849 23.1221 34.571C23.1221 34.557 23.1221 34.5431 23.1221 34.5291C23.1221 34.5152 23.1221 34.5012 23.1221 34.4871C23.1221 34.4731 23.1221 34.4591 23.1221 34.445C23.1221 34.431 23.1221 34.4169 23.1221 34.4028C23.1221 34.3887 23.1221 34.3746 23.1221 34.3605C23.1221 34.3464 23.1221 34.3322 23.1221 34.318C23.1221 34.3039 23.1221 34.2897 23.1221 34.2754C23.1221 34.2612 23.1221 34.247 23.1221 34.2327C23.1221 34.2185 23.1221 34.2042 23.1221 34.1899C23.1221 34.1756 23.1221 34.1613 23.1221 34.147C23.1221 34.1327 23.1221 34.1183 23.1221 34.104C23.1221 34.0896 23.1221 34.0752 23.1221 34.0608C23.1221 34.0464 23.1221 34.032 23.1221 34.0175C23.1221 34.0031 23.1221 33.9886 23.1221 33.9741C23.1221 33.9596 23.1221 33.9451 23.1221 33.9306C23.1221 33.9161 23.1221 33.9016 23.1221 33.887C23.1221 33.8724 23.1221 33.8579 23.1221 33.8433C23.1221 33.8287 23.1221 33.8141 23.1221 33.7994C23.1221 33.7848 23.1221 33.7701 23.1221 33.7555C23.1221 33.7408 23.1221 33.7261 23.1221 33.7114C23.1221 33.6967 23.1221 33.682 23.1221 33.6672C23.1221 33.6525 23.1221 33.6377 23.1221 33.623C23.1221 33.6082 23.1221 33.5934 23.1221 33.5786C23.1221 33.5638 23.1221 33.5489 23.1221 33.5341C23.1221 33.5192 23.1221 33.5044 23.1221 33.4895C23.1221 33.4746 23.1221 33.4597 23.1221 33.4448C23.1221 33.4299 23.1221 33.4149 23.1221 33.4C23.1221 33.385 23.1221 33.3701 23.1221 33.3551C23.1221 33.3401 23.1221 33.3251 23.1221 33.3101C23.1221 33.295 23.1221 33.28 23.1221 33.2649C23.1221 33.2499 23.1221 33.2348 23.1221 33.2197C23.1221 33.2046 23.1221 33.1895 23.1221 33.1744C23.1221 33.1593 23.1221 33.1441 23.1221 33.129C23.1221 33.1138 23.1221 33.0987 23.1221 33.0835C23.1221 33.0683 23.1221 33.0531 23.1221 33.0378C23.1221 33.0226 23.1221 33.0074 23.1221 32.9921C23.1221 32.9769 23.1221 32.9616 23.1221 32.9463C23.1221 32.931 23.1221 32.9157 23.1221 32.9004C23.1221 32.8851 23.1221 32.8698 23.1221 32.8544C23.1221 32.8391 23.1221 32.8237 23.1221 32.8083C23.1221 32.7929 23.1221 32.7775 23.1221 32.7621C23.1221 32.7467 23.1221 32.7313 23.1221 32.7158C23.1221 32.7004 23.1221 32.6849 23.1221 32.6694C23.1221 32.654 23.1221 32.6385 23.1221 32.623C23.1221 32.6075 23.1221 32.5919 23.1221 32.5764C23.1221 32.5609 23.1221 32.5453 23.1221 32.5297C23.1221 32.5142 23.1221 32.4986 23.1221 32.483C23.1221 32.4674 23.1221 32.4518 23.1221 32.4362C23.1221 32.4205 23.1221 32.4049 23.1221 32.3892C23.1221 32.3736 23.1221 32.3579 23.1221 32.3422C23.1221 32.3265 23.1221 32.3108 23.1221 32.2951C23.1221 32.2794 23.1221 32.2637 23.1221 32.2479C23.1221 32.2322 23.1221 32.2165 23.1221 32.2007C23.1221 32.1849 23.1221 32.1691 23.1221 32.1533C23.1221 32.1375 23.1221 32.1217 23.1221 32.1059C23.1221 32.0901 23.1221 32.0742 23.1221 32.0584C23.1221 32.0425 23.1221 32.0266 23.1221 32.0108C23.1221 31.9949 23.1221 31.979 23.1221 31.9631C23.1221 31.9472 23.1221 31.9312 23.1221 31.9153C23.1221 31.8994 23.1221 31.8834 23.1221 31.8675C23.1221 31.8515 23.1221 31.8355 23.1221 31.8195C23.1221 31.8035 23.1221 31.7875 23.1221 31.7715C23.1221 31.7555 23.1221 31.7395 23.1221 31.7234C23.1221 31.7074 23.1221 31.6913 23.1221 31.6753C23.1221 31.6592 23.1221 31.6431 23.1221 31.627C23.1221 31.6109 23.1221 31.5948 23.1221 31.5787C23.1221 31.5626 23.1221 31.5465 23.1221 31.5303C23.1221 31.5142 23.1221 31.498 23.1221 31.4819C23.1221 31.4657 23.1221 31.4495 23.1221 31.4333C23.1221 31.4171 23.1221 31.4009 23.1221 31.3847C23.1221 31.3685 23.1221 31.3523 23.1221 31.336C23.1221 31.3198 23.1221 31.3035 23.1221 31.2873C23.1221 31.271 23.1221 31.2547 23.1221 31.2384C23.1221 31.2221 23.1221 31.2058 23.1221 31.1895C23.1221 31.1732 23.1221 31.1569 23.1221 31.1406C23.1221 31.1242 23.1221 31.1079 23.1221 31.0915C23.1221 31.0752 23.1221 31.0588 23.1221 31.0424C23.1221 31.026 23.1221 31.0096 23.1221 30.9932C23.1221 30.9768 23.1221 30.9604 23.1221 30.944C23.1221 30.9276 23.1221 30.9111 23.1221 30.8947C23.1221 30.8782 23.1221 30.8618 23.1221 30.8453C23.1221 30.8288 23.1221 30.8124 23.1221 30.7959C23.1221 30.7794 23.1221 30.7629 23.1221 30.7464C23.1221 30.7299 23.1221 30.7133 23.1221 30.6968C23.1221 30.6803 23.1221 30.6637 23.1221 30.6472C23.1221 30.6306 23.1221 30.6141 23.1221 30.5975C23.1221 30.5809 23.1221 30.5643 23.1221 30.5478C23.1221 30.5312 23.1221 30.5146 23.1221 30.4979C23.1221 30.4813 23.1221 30.4647 23.1221 30.4481C23.1221 30.4314 23.1221 30.4148 23.1221 30.3981C23.1221 30.3815 23.1221 30.3648 23.1221 30.3482C23.1221 30.3315 23.1221 30.3148 23.1221 30.2981C23.1221 30.2814 23.1221 30.2647 23.1221 30.248C23.1221 30.2313 23.1221 30.2146 23.1221 30.1979C23.1221 30.1811 23.1221 30.1644 23.1221 30.1477C23.1221 30.1309 23.1221 30.1142 23.1221 30.0974C23.1221 30.0806 23.1221 30.0639 23.1221 30.0471C23.1221 30.0303 23.1221 30.0135 23.1221 29.9967C23.1221 29.9799 23.1221 29.9631 23.1221 29.9463C23.1221 29.9295 23.1221 29.9126 23.1221 29.8958C23.1221 29.879 23.1221 29.8621 23.1221 29.8453C23.1221 29.8284 23.1221 29.8116 23.1221 29.7947C23.1221 29.7778 23.1221 29.761 23.1221 29.7441C23.1221 29.7272 23.1221 29.7103 23.1221 29.6934C23.1221 29.6765 23.1221 29.6596 23.1221 29.6427C23.1221 29.6258 23.1221 29.6089 23.1221 29.5919C23.1221 29.575 23.1221 29.5581 23.1221 29.5411C23.1221 29.5242 23.1221 29.5072 23.1221 29.4903C23.1221 29.4733 23.1221 29.4563 23.1221 29.4394C23.1221 29.4224 23.1221 29.4054 23.1221 29.3884C23.1221 29.3714 23.1221 29.3544 23.1221 29.3374C23.1221 29.3204 23.1221 29.3034 23.1221 29.2864C23.1221 29.2694 23.1221 29.2523 23.1221 29.2353C23.1221 29.2183 23.1221 29.2012 23.1221 29.1842C23.1221 29.1671 23.1221 29.1501 23.1221 29.133C23.1221 29.116 23.1221 29.0989 23.1221 29.0818C23.1221 29.0648 23.1221 29.0477 23.1221 29.0306C23.1221 29.0135 23.1221 28.9964 23.1221 28.9793C23.1221 28.9622 23.1221 28.9451 23.1221 28.928C23.1221 28.9109 23.1221 28.8938 23.1221 28.8766C23.1221 28.8595 23.1221 28.8424 23.1221 28.8253C23.1221 28.8081 23.1221 28.791 23.1221 28.7738C23.1221 28.7567 23.1221 28.7395 23.1221 28.7224C23.1221 28.7052 23.1221 28.6881 23.1221 28.6709C23.1221 28.6537 23.1221 28.6365 23.1221 28.6194C23.1221 28.6022 23.1221 28.585 23.1221 28.5678C23.1221 28.5506 23.1221 28.5334 23.1221 28.5162C23.1221 28.499 23.1221 28.4818 23.1221 28.4646C23.1221 28.4474 23.1221 28.4302 23.1221 28.413C23.1221 28.3957 23.1221 28.3785 23.1221 28.3613C23.1221 28.344 23.1221 28.3268 23.1221 28.3096C23.1221 28.2923 23.1221 28.2751 23.1221 28.2578C23.1221 28.2406 23.1221 28.2233 23.1221 28.2061C23.1221 28.1888 23.1221 28.1715 23.1221 28.1543C23.1221 28.137 23.1221 28.1197 23.1221 28.1025C23.1221 28.0852 23.1221 28.0679 23.1221 28.0506C23.1221 28.0333 23.1221 28.016 23.1221 27.9987C23.1221 27.9815 23.1221 27.9642 23.1221 27.9469C23.1221 27.9296 23.1221 27.9123 23.1221 27.8949C23.1221 27.8776 23.1221 27.8603 23.1221 27.843C23.1221 27.8257 23.1221 27.8084 23.1221 27.791C23.1221 27.7737 23.1221 27.7564 23.1221 27.7391C23.1221 27.7217 23.1221 27.7044 23.1221 27.6871C23.1221 27.6697 23.1221 27.6524 23.1221 27.6351C23.1221 27.6177 23.1221 27.6004 23.1221 27.583C23.1221 27.5657 23.1221 27.5483 23.1221 27.531C23.1221 27.5136 23.1221 27.4962 23.1221 27.4789C23.1221 27.4615 23.1221 27.4442 23.1221 27.4268C23.1221 27.4094 23.1221 27.3921 23.1221 27.3747C23.1221 27.3573 23.1221 27.34 23.1221 27.3226C23.1221 27.3052 23.1221 27.2878 23.1221 27.2704C23.1221 27.2531 23.1221 27.2357 23.1221 27.2183C23.1221 27.2009 23.1221 27.1835 23.1221 27.1661C23.1221 27.1487 23.1221 27.1314 23.1221 27.114C23.1221 27.0966 23.1221 27.0792 23.1221 27.0618C23.1221 27.0444 23.1221 27.027 23.1221 27.0096C23.1221 26.9922 23.1221 26.9748 23.1221 26.9574C23.1221 26.94 23.1221 26.9226 23.1221 26.9052C23.1221 26.8878 23.1221 26.8703 23.1221 26.8529C23.1221 26.8355 23.1221 26.8181 23.1221 26.8007C23.1221 26.7833 23.1221 26.7659 23.1221 26.7485C23.1221 26.7311 23.1221 26.7136 23.1221 26.6962C23.1221 26.6788 23.1221 26.6614 23.1221 26.644C23.1221 26.6266 23.1221 26.6091 23.1221 26.5917C23.1221 26.5743 23.1221 26.5569 23.1221 26.5395C23.1221 26.522 23.1221 26.5046 23.1221 26.4872C23.1221 26.4698 23.1221 26.4523 23.1221 26.4349C23.1221 26.4175 23.1221 26.4001 23.1221 26.3827C23.1221 26.3652 23.1221 26.3478 23.1221 26.3304C23.1221 26.313 23.1221 26.2955 23.1221 26.2781C23.1221 26.2607 23.1221 26.2433 23.1221 26.2259C23.1221 26.2084 23.1221 26.191 23.1221 26.1736C23.1221 26.1562 23.1221 26.1387 23.1221 26.1213C23.1221 26.1039 23.1221 26.0865 23.1221 26.069C23.1221 26.0516 23.1221 26.0342 23.1221 26.0168C23.1221 25.9994 23.1221 25.9819 23.1221 25.9645C23.1221 25.9471 23.1221 25.9297 23.1221 25.9123C23.1221 25.8949 23.1221 25.8774 23.1221 25.86C23.1221 25.8426 23.1221 25.8252 23.1221 25.8078C23.1221 25.7904 23.1221 25.773 23.1221 25.7556C23.1221 25.7381 23.1221 25.7207 23.1221 25.7033C23.1221 25.6859 23.1221 25.6685 23.1221 25.6511C23.1221 25.6337 23.1221 25.6163 23.1221 25.5989C23.1221 25.5815 23.1221 25.5641 23.1221 25.5467C23.1221 25.5293 23.1221 25.5119 23.1221 25.4945C23.1221 25.4771 23.1221 25.4597 23.1221 25.4423C23.1221 25.4249 23.1221 25.4075 23.1221 25.3902C23.1221 25.3728 23.1221 25.3554 23.1221 25.338C23.1221 25.3206 23.1221 25.3032 23.1221 25.2859C23.1221 25.2685 23.1221 25.2511 23.1221 25.2337C23.1221 25.2164 23.1221 25.199 23.1221 25.1816C23.1221 25.1642 23.1221 25.1469 23.1221 25.1295C23.1221 25.1122 23.1221 25.0948 23.1221 25.0774C23.1221 25.0601 23.1221 25.0427 23.1221 25.0254C23.1221 25.008 23.1221 24.9907 23.1221 24.9733C23.1221 24.956 23.1221 24.9386 23.1221 24.9213C23.1221 24.9039 23.1221 24.8866 23.1221 24.8693C23.1221 24.8519 23.1221 24.8346 23.1221 24.8173C23.1221 24.8 23.1221 24.7826 23.1221 24.7653C23.1221 24.748 23.1221 24.7307 23.1221 24.7134C23.1221 24.6961 23.1221 24.6787 23.1221 24.6614C23.1221 24.6441 23.1221 24.6268 23.1221 24.6095C23.1221 24.5922 23.1221 24.5749 23.1221 24.5577C23.1221 24.5404 23.1221 24.5231 23.1221 24.5058C23.1221 24.4885 23.1221 24.4712 23.1221 24.454C23.1221 24.4367 23.1221 24.4194 23.1221 24.4022C23.1221 24.3849 23.1221 24.3676 23.1221 24.3504C23.1221 24.3331 23.1221 24.3159 23.1221 24.2986C23.1221 24.2814 23.1221 24.2641 23.1221 24.2469C23.1221 24.2297 23.1221 24.2124 23.1221 24.1952C23.1221 24.178 23.1221 24.1608 23.1221 24.1435C23.1221 24.1263 23.1221 24.1091 23.1221 24.0919C23.1221 24.0747 23.1221 24.0575 23.1221 24.0403C23.1221 24.0231 23.1221 24.0059 23.1221 23.9887C23.1221 23.9715 23.1221 23.9544 23.1221 23.9372C23.1221 23.92 23.1221 23.9028 23.1221 23.8857C23.1221 23.8685 23.1221 23.8513 23.1221 23.8342C23.1221 23.817 23.1221 23.7999 23.1221 23.7827C23.1221 23.7656 23.1221 23.7485 23.1221 23.7313C23.1221 23.7142 23.1221 23.6971 23.1221 23.68C23.1221 23.6629 23.1221 23.6457 23.1221 23.6286C23.1221 23.6115 23.1221 23.5944 23.1221 23.5773C23.1221 23.5602 23.1221 23.5432 23.1221 23.5261C23.1221 23.509 23.1221 23.4919 23.1221 23.4749C23.1221 23.4578 23.1221 23.4407 23.1221 23.4237C23.1221 23.4066 23.1221 23.3896 23.1221 23.3725C23.1221 23.3555 23.1221 23.3385 23.1221 23.3214C23.1221 23.3044 23.1221 23.2874 23.1221 23.2704C23.1221 23.2534 23.1221 23.2364 23.1221 23.2194C23.1221 23.2024 23.1221 23.1854 23.1221 23.1684C23.1221 23.1514 23.1221 23.1344 23.1221 23.1174C23.1221 23.1005 23.1221 23.0835 23.1221 23.0666C23.1221 23.0496 23.1221 23.0327 23.1221 23.0157C23.1221 22.9988 23.1221 22.9819 23.1221 22.9649C23.1221 22.948 23.1221 22.9311 23.1221 22.9142C23.1221 22.8973 23.1221 22.8804 23.1221 22.8635C23.1221 22.8466 23.1221 22.8297 23.1221 22.8128C23.1221 22.796 23.1221 22.7791 23.1221 22.7622C23.1221 22.7454 23.1221 22.7285 23.1221 22.7117C23.1221 22.6948 23.1221 22.678 23.1221 22.6612C23.1221 22.6443 23.1221 22.6275 23.1221 22.6107C23.1221 22.5939 23.1221 22.5771 23.1221 22.5603C23.1221 22.5435 23.1221 22.5267 23.1221 22.51C23.1221 22.4932 23.1221 22.4764 23.1221 22.4597C23.1221 22.4429 23.1221 22.4262 23.1221 22.4094C23.1221 22.3927 23.1221 22.376 23.1221 22.3592C23.1221 22.3425 23.1221 22.3258 23.1221 22.3091C23.1221 22.2924 23.1221 22.2757 23.1221 22.259C23.1221 22.2424 23.1221 22.2257 23.1221 22.209C23.1221 22.1924 23.1221 22.1757 23.1221 22.1591C23.1221 22.1424 23.1221 22.1258 23.1221 22.1092C23.1221 22.0925 23.1221 22.0759 23.1221 22.0593C23.1221 22.0427 23.1221 22.0261 23.1221 22.0095C23.1221 21.9929 23.1221 21.9764 23.1221 21.9598C23.1221 21.9432 23.1221 21.9267 23.1221 21.9101C23.1221 21.8936 23.1221 21.8771 23.1221 21.8605C23.1221 21.844 23.1221 21.8275 23.1221 21.811C23.1221 21.7945 23.1221 21.778 23.1221 21.7615C23.1221 21.745 23.1221 21.7286 23.1221 21.7121C23.1221 21.6957 23.1221 21.6792 23.1221 21.6628C23.1221 21.6463 23.1221 21.6299 23.1221 21.6135C23.1221 21.5971 23.1221 21.5807 23.1221 21.5643C23.1221 21.5479 23.1221 21.5315 23.1221 21.5151C23.1221 21.4988 23.1221 21.4824 23.1221 21.4661C23.1221 21.4497 23.1221 21.4334 23.1221 21.417C23.1221 21.4007 23.1221 21.3844 23.1221 21.3681C23.1221 21.3518 23.1221 21.3355 23.1221 21.3192C23.1221 21.303 23.1221 21.2867 23.1221 21.2704C23.1221 21.2542 23.1221 21.2379 23.1221 21.2217C23.1221 21.2055 23.1221 21.1893 23.1221 21.173C23.1221 21.1568 23.1221 21.1406 23.1221 21.1245C23.1221 21.1083 23.1221 21.0921 23.1221 21.076C23.1221 21.0598 23.1221 21.0437 23.1221 21.0275C23.1221 21.0114 23.1221 20.9953 23.1221 20.9792C23.1221 20.9631 23.1221 20.947 23.1221 20.9309C23.1221 20.9148 23.1221 20.8987 23.1221 20.8827C23.1221 20.8666 23.1221 20.8506 23.1221 20.8345C23.1221 20.8185 23.1221 20.8025 23.1221 20.7865C23.1221 20.7705 23.1221 20.7545 23.1221 20.7385C23.1221 20.7225 23.1221 20.7066 23.1221 20.6906C23.1221 20.6747 23.1221 20.6587 23.1221 20.6428C23.1221 20.6269 23.1221 20.611 23.1221 20.5951C23.1221 20.5792 23.1221 20.5633 23.1221 20.5474C23.1221 20.5315 23.1221 20.5157 23.1221 20.4998C23.1221 20.484 23.1221 20.4682 23.1221 20.4523C23.1221 20.4365 23.1221 20.4207 23.1221 20.4049C23.1221 20.3892 23.1221 20.3734 23.1221 20.3576C23.1221 20.3419 23.1221 20.3261 23.1221 20.3104C23.1221 20.2947 23.1221 20.2789 23.1221 20.2632C23.1221 20.2475 23.1221 20.2319 23.1221 20.2162C23.1221 20.2005 23.1221 20.1848 23.1221 20.1692C23.1221 20.1536 23.1221 20.1379 23.1221 20.1223C23.1221 20.1067 23.1221 20.0911 23.1221 20.0755C23.1221 20.0599 23.1221 20.0444 23.1221 20.0288C23.1221 20.0133 23.1221 19.9977 23.1221 19.9822C23.1221 19.9667 23.1221 19.9512 23.1221 19.9357C23.1221 19.9202 23.1221 19.9047 23.1221 19.8892C23.1221 19.8738 23.1221 19.8583 23.1221 19.8429C23.1221 19.8275 23.1221 19.812 23.1221 19.7966C23.1221 19.7812 23.1221 19.7659 23.1221 19.7505C23.1221 19.7351 23.1221 19.7198 23.1221 19.7044C23.1221 19.6891 23.1221 19.6738 23.1221 19.6585C23.1221 19.6432 23.1221 19.6279 23.1221 19.6126C23.1221 19.5973 23.1221 19.5821 23.1221 19.5668C23.1221 19.5516 23.1221 19.5363 23.1221 19.5211C23.1221 19.5059 23.1221 19.4907 23.1221 19.4756C23.1221 19.4604 23.1221 19.4452 23.1221 19.4301C23.1221 19.4149 23.1221 19.3998 23.1221 19.3847C23.1221 19.3696 23.1221 19.3545 23.1221 19.3394C23.1221 19.3244 23.1221 19.3093 23.1221 19.2943C23.1221 19.2792 23.1221 19.2642 23.1221 19.2492C23.1221 19.2342 23.1221 19.2192 23.1221 19.2042C23.1221 19.1892 23.1221 19.1743 23.1221 19.1593C23.1221 19.1444 23.1221 19.1295 23.1221 19.1146C23.1221 19.0997 23.1221 19.0848 23.1221 19.0699C23.1221 19.055 23.1221 19.0402 23.1221 19.0254C23.1221 19.0105 23.1221 18.9957 23.1221 18.9809C23.1221 18.9661 23.1221 18.9513 23.1221 18.9366C23.1221 18.9218 23.1221 18.9071 23.1221 18.8923C23.1221 18.8776 23.1221 18.8629 23.1221 18.8482C23.1221 18.8335 23.1221 18.8189 23.1221 18.8042C23.1221 18.7895 23.1221 18.7749 23.1221 18.7603C23.1221 18.7457 23.1221 18.7311 23.1221 18.7165C23.1221 18.7019 23.1221 18.6874 23.1221 18.6728C23.1221 18.6583 23.1221 18.6438 23.1221 18.6292C23.1221 18.6147 23.1221 18.6003 23.1221 18.5858C23.1221 18.5713 23.1221 18.5569 23.1221 18.5424C23.1221 18.528 23.1221 18.5136 23.1221 18.4992C23.1221 18.4848 23.1221 18.4704 23.1221 18.4561C23.1221 18.4417 23.1221 18.4274 23.1221 18.4131C23.1221 18.3988 23.1221 18.3845 23.1221 18.3702C23.1221 18.3559 23.1221 18.3417 23.1221 18.3274C23.1221 18.3132 23.1221 18.299 23.1221 18.2848C23.1221 18.2706 23.1221 18.2564 23.1221 18.2423C23.1221 18.2281 23.1221 18.214 23.1221 18.1999C23.1221 18.1857 23.1221 18.1716 23.1221 18.1576C23.1221 18.1435 23.1221 18.1294 23.1221 18.1154C23.1221 18.1014 23.1221 18.0873 23.1221 18.0733C23.1221 18.0594 23.1221 18.0454 23.1221 18.0314C23.1221 18.0175 23.1221 18.0035 23.1221 17.9896C23.1221 17.9757 23.1221 17.9618 23.1221 17.9479C23.1221 17.9341 23.1221 17.9202 23.1221 17.9064C23.1221 17.8926 23.1221 17.8787 23.1221 17.865C23.1221 17.8512 23.1221 17.8374 23.1221 17.8237C23.1221 17.8099 23.1221 17.7962 23.1221 17.7825C23.1221 17.7688 23.1221 17.7551 23.1221 17.7414C23.1221 17.7278 23.1221 17.7141 23.1221 17.7005C23.1221 17.6869 23.1221 17.6733 23.1221 17.6597C23.1221 17.6461 23.1221 17.6326 23.1221 17.619C23.1221 17.6055 23.1221 17.592 23.1221 17.5785C23.1221 17.565 23.1221 17.5516 23.1221 17.5381C23.1221 17.5247 23.1221 17.5112 23.1221 17.4978C23.1221 17.4844 23.1221 17.4711 23.1221 17.4577C23.1221 17.4443 23.1221 17.431 23.1221 17.4177C23.1221 17.4044 23.1221 17.3911 23.1221 17.3778C23.1221 17.3646 23.1221 17.3513 23.1221 17.3381C23.1221 17.3249 23.1221 17.3117 23.1221 17.2985C23.1221 17.2853 23.1221 17.2722 23.1221 17.259C23.1221 17.2459 23.1221 17.2328 23.1221 17.2197C23.1221 17.2066 23.1221 17.1935 23.1221 17.1805C23.1221 17.1675 23.1221 17.1544 23.1221 17.1415C23.1221 17.1285 23.1221 17.1155 23.1221 17.1025C23.1221 17.0896 23.1221 17.0767 23.1221 17.0638C23.1221 17.0509 23.1221 17.038 23.1221 17.0251C23.1221 17.0123 23.1221 16.9994 23.1221 16.9866C23.1221 16.9738 23.1221 16.9611 23.1221 16.9483C23.1221 16.9355 23.1221 16.9228 23.1221 16.9101C23.1221 16.8974 23.1221 16.8847 23.1221 16.872C23.1221 16.8594 23.1221 16.8467 23.1221 16.8341C23.1221 16.8215 23.1221 16.8089 23.1221 16.7963C23.1221 16.7838 23.1221 16.7712 23.1221 16.7587C23.1221 16.7462 23.1221 16.7337 23.1221 16.7212C23.1221 16.7087 23.1221 16.6963 23.1221 16.6839C23.1221 16.6715 23.1221 16.6591 23.1221 16.6467C23.1221 16.6343 23.1221 16.622 23.1221 16.6096C23.1221 16.5973 23.1221 16.585 23.1221 16.5728C23.1221 16.5605 23.1221 16.5482 23.1221 16.536C23.1221 16.5238 23.1221 16.5116 23.1221 16.4994C23.1221 16.4872 23.1221 16.4751 23.1221 16.463C23.1221 16.4509 23.1221 16.4388 23.1221 16.4267C23.1221 16.4146 23.1221 16.4026 23.1221 16.3906C23.1221 16.3785 23.1221 16.3665 23.1221 16.3546C23.1221 16.3426 23.1221 16.3307 23.1221 16.3188C23.1221 16.3068 23.1221 16.2949 23.1221 16.2831C23.1221 16.2712 23.1221 16.2594 23.1221 16.2476C23.1221 16.2358 23.1221 16.224 23.1221 16.2122C23.1221 16.2004 23.1221 16.1887 23.1221 16.177C23.1221 16.1653 23.1221 16.1536 23.1221 16.142C23.1221 16.1303 23.1221 16.1187 23.1221 16.1071C23.1221 16.0955 23.1221 16.0839 23.1221 16.0723C23.1221 16.0608 23.1221 16.0493 23.1221 16.0378C23.1221 16.0263 23.1221 16.0148 23.1221 16.0034C23.1221 15.9919 23.1221 15.9805 23.1221 15.9691C23.1221 15.9577 23.1221 15.9464 23.1221 15.935C23.1221 15.9237 23.1221 15.9124 23.1221 15.9011C23.1221 15.8898 23.1221 15.8786 23.1221 15.8674C23.1221 15.8561 23.1221 15.8449 23.1221 15.8338C23.1221 15.8226 23.1221 15.8115 23.1221 15.8004C23.1221 15.7892 23.1221 15.7782 23.1221 15.7671C23.1221 15.756 23.1221 15.745 23.1221 15.734C23.1221 15.723 23.1221 15.712 23.1221 15.7011C23.1221 15.6901 23.1221 15.6792 23.1221 15.6683C23.1221 15.6574 23.1221 15.6466 23.1221 15.6357C23.1221 15.6249 23.1221 15.6141 23.1221 15.6033C23.1221 15.5925 23.1221 15.5818 23.1221 15.5711C23.1221 15.5603 23.1221 15.5496 23.1221 15.539C23.1221 15.5283 23.1221 15.5177 23.1221 15.5071C23.1221 15.4965 23.1221 15.4859 23.1221 15.4753C23.1221 15.4648 23.1221 15.4543 23.1221 15.4438C23.1221 15.4333 23.1221 15.4228 23.1221 15.4124C23.1221 15.402 23.1221 15.3915 23.1221 15.3812C23.1221 15.3708 23.1221 15.3605 23.1221 15.3501C23.1221 15.3398 23.1221 15.3295 23.1221 15.3193C23.1221 15.309 23.1221 15.2988 23.1221 15.2886C23.1221 15.2784 23.1221 15.2682 23.1221 15.2581C23.1221 15.2479 23.1221 15.2378 23.1221 15.2278C23.1221 15.2177 23.1221 15.2076 23.1221 15.1976C23.1221 15.1876 23.1221 15.1776 23.1221 15.1676C23.1221 15.1577 23.1221 15.1477 23.1221 15.1378C23.1221 15.1279 23.1221 15.1181 23.1221 15.1082C23.1221 15.0984 23.1221 15.0886 23.1221 15.0788C23.1221 15.069 23.1221 15.0593 23.1221 15.0496C23.1221 15.0398 23.1221 15.0302 23.1221 15.0205C23.1221 15.0108 23.1221 15.0012 23.1221 14.9916C23.1221 14.982 23.1221 14.9725 23.1221 14.9629C23.1221 14.9534 23.1221 14.9439 23.1221 14.9344C23.1221 14.9249 23.1221 14.9155 23.1221 14.9061C23.1221 14.8967 23.1221 14.8873 23.1221 14.878C23.1221 14.8686 23.1221 14.8593 23.1221 14.85C23.1221 14.8407 23.1221 14.8315 23.1221 14.8223C23.1221 14.813 23.1221 14.8039 23.1221 14.7947C23.1221 14.7855 23.1221 14.7764 23.1221 14.7673C23.1221 14.7582 23.1221 14.7492 23.1221 14.7401C23.1221 14.7311 23.1221 14.7221 23.1221 14.7131C23.1221 14.7042 23.1221 14.6952 23.1221 14.6863C23.1221 14.6774 23.1221 14.6686 23.1221 14.6597C23.1221 14.6509 23.1221 14.6421 23.1221 14.6333C23.1221 14.6245 23.1221 14.6158 23.1221 14.6071C23.1221 14.5984 23.1221 14.5897 23.1221 14.581C23.1221 14.5724 23.1221 14.5638 23.1221 14.5552C23.1221 14.5466 23.1221 14.5381 23.1221 14.5296C23.1221 14.5211 23.1221 14.5126 23.1221 14.5041C23.1221 14.4957 23.1221 14.4873 23.1221 14.4789C23.1221 14.4705 23.1221 14.4622 23.1221 14.4538C23.1221 14.4455 23.1221 14.4372 23.1221 14.429C23.1221 14.4208 23.1221 14.4125 23.1221 14.4044C23.1221 14.3962 23.1221 14.388 23.1221 14.3799C23.1221 14.3718 23.1221 14.3637 23.1221 14.3557C23.1221 14.3476 23.1221 14.3396 23.1221 14.3316C23.1221 14.3236 23.1221 14.3157 23.1221 14.3078C23.1221 14.2999 23.1221 14.292 23.1221 14.2842C23.1221 14.2763 23.1221 14.2685 23.1221 14.2607C23.1221 14.253 23.1221 14.2452 23.1221 14.2375C23.1221 14.2298 23.1221 14.2221 23.1221 14.2145C23.1221 14.2068 23.1221 14.1992 23.1221 14.1917C23.1221 14.1841 23.1221 14.1766 23.1221 14.1691C23.1221 14.1616 23.1221 14.1541 23.1221 14.1467C23.1221 14.1392 23.1221 14.1318 23.1221 14.1245C23.1221 14.1171 23.1221 14.1098 23.1221 14.1025C23.1221 14.0952 23.1221 14.088 23.1221 14.0807C23.1221 14.0735 23.1221 14.0663 23.1221 14.0592C23.1221 14.052 23.1221 14.0449 23.1221 14.0378C23.1221 14.0308 23.1221 14.0237 23.1221 14.0167C23.1221 14.0097 23.1221 14.0027 23.1221 13.9958C23.1221 13.9889 23.1221 13.9819 23.1221 13.9751H22.1221ZM22.1289 36.4685C22.3122 37.5683 23.5003 39.5229 26.577 39.5229V38.5229C24.0289 38.5229 23.2249 36.9621 23.1153 36.3041L22.1289 36.4685ZM26.577 39.5229C26.5795 39.5229 26.5819 39.5229 26.5844 39.5229C26.5869 39.5229 26.5894 39.5229 26.5918 39.5229C26.5943 39.5229 26.5968 39.5229 26.5993 39.5229C26.6018 39.5229 26.6043 39.5229 26.6067 39.5229C26.6092 39.5229 26.6117 39.5229 26.6142 39.5229C26.6167 39.5229 26.6192 39.5229 26.6217 39.5229C26.6242 39.5229 26.6267 39.5229 26.6292 39.5229C26.6317 39.5229 26.6342 39.5229 26.6367 39.5229C26.6392 39.5229 26.6417 39.5229 26.6442 39.5229C26.6467 39.5229 26.6492 39.5229 26.6517 39.5229C26.6542 39.5229 26.6567 39.5229 26.6593 39.5229C26.6618 39.5229 26.6643 39.5229 26.6668 39.5229C26.6693 39.5229 26.6718 39.5229 26.6744 39.5229C26.6769 39.5229 26.6794 39.5229 26.6819 39.5229C26.6845 39.5229 26.687 39.5229 26.6895 39.5229C26.692 39.5229 26.6946 39.5229 26.6971 39.5229C26.6996 39.5229 26.7022 39.5229 26.7047 39.5229C26.7073 39.5229 26.7098 39.5229 26.7123 39.5229C26.7149 39.5229 26.7174 39.5229 26.72 39.5229C26.7225 39.5229 26.7251 39.5229 26.7276 39.5229C26.7302 39.5229 26.7327 39.5229 26.7353 39.5229C26.7378 39.5229 26.7404 39.5229 26.7429 39.5229C26.7455 39.5229 26.748 39.5229 26.7506 39.5229C26.7532 39.5229 26.7557 39.5229 26.7583 39.5229C26.7608 39.5229 26.7634 39.5229 26.766 39.5229C26.7685 39.5229 26.7711 39.5229 26.7737 39.5229C26.7763 39.5229 26.7788 39.5229 26.7814 39.5229C26.784 39.5229 26.7866 39.5229 26.7891 39.5229C26.7917 39.5229 26.7943 39.5229 26.7969 39.5229C26.7995 39.5229 26.802 39.5229 26.8046 39.5229C26.8072 39.5229 26.8098 39.5229 26.8124 39.5229C26.815 39.5229 26.8176 39.5229 26.8202 39.5229C26.8228 39.5229 26.8254 39.5229 26.828 39.5229C26.8306 39.5229 26.8332 39.5229 26.8358 39.5229C26.8384 39.5229 26.841 39.5229 26.8436 39.5229C26.8462 39.5229 26.8488 39.5229 26.8514 39.5229C26.854 39.5229 26.8566 39.5229 26.8592 39.5229C26.8618 39.5229 26.8644 39.5229 26.8671 39.5229C26.8697 39.5229 26.8723 39.5229 26.8749 39.5229C26.8775 39.5229 26.8801 39.5229 26.8828 39.5229C26.8854 39.5229 26.888 39.5229 26.8906 39.5229C26.8933 39.5229 26.8959 39.5229 26.8985 39.5229C26.9012 39.5229 26.9038 39.5229 26.9064 39.5229C26.9091 39.5229 26.9117 39.5229 26.9143 39.5229C26.917 39.5229 26.9196 39.5229 26.9222 39.5229C26.9249 39.5229 26.9275 39.5229 26.9302 39.5229C26.9328 39.5229 26.9355 39.5229 26.9381 39.5229C26.9408 39.5229 26.9434 39.5229 26.9461 39.5229C26.9487 39.5229 26.9514 39.5229 26.954 39.5229C26.9567 39.5229 26.9593 39.5229 26.962 39.5229C26.9646 39.5229 26.9673 39.5229 26.97 39.5229C26.9726 39.5229 26.9753 39.5229 26.978 39.5229C26.9806 39.5229 26.9833 39.5229 26.986 39.5229C26.9886 39.5229 26.9913 39.5229 26.994 39.5229C26.9966 39.5229 26.9993 39.5229 27.002 39.5229C27.0047 39.5229 27.0073 39.5229 27.01 39.5229C27.0127 39.5229 27.0154 39.5229 27.0181 39.5229C27.0207 39.5229 27.0234 39.5229 27.0261 39.5229C27.0288 39.5229 27.0315 39.5229 27.0342 39.5229C27.0369 39.5229 27.0396 39.5229 27.0423 39.5229C27.0449 39.5229 27.0476 39.5229 27.0503 39.5229C27.053 39.5229 27.0557 39.5229 27.0584 39.5229C27.0611 39.5229 27.0638 39.5229 27.0665 39.5229C27.0692 39.5229 27.0719 39.5229 27.0747 39.5229C27.0774 39.5229 27.0801 39.5229 27.0828 39.5229C27.0855 39.5229 27.0882 39.5229 27.0909 39.5229C27.0936 39.5229 27.0963 39.5229 27.0991 39.5229C27.1018 39.5229 27.1045 39.5229 27.1072 39.5229C27.1099 39.5229 27.1127 39.5229 27.1154 39.5229C27.1181 39.5229 27.1208 39.5229 27.1235 39.5229C27.1263 39.5229 27.129 39.5229 27.1317 39.5229C27.1345 39.5229 27.1372 39.5229 27.1399 39.5229C27.1427 39.5229 27.1454 39.5229 27.1481 39.5229C27.1509 39.5229 27.1536 39.5229 27.1563 39.5229C27.1591 39.5229 27.1618 39.5229 27.1646 39.5229C27.1673 39.5229 27.1701 39.5229 27.1728 39.5229C27.1756 39.5229 27.1783 39.5229 27.1811 39.5229C27.1838 39.5229 27.1866 39.5229 27.1893 39.5229C27.1921 39.5229 27.1948 39.5229 27.1976 39.5229C27.2003 39.5229 27.2031 39.5229 27.2058 39.5229C27.2086 39.5229 27.2114 39.5229 27.2141 39.5229C27.2169 39.5229 27.2196 39.5229 27.2224 39.5229C27.2252 39.5229 27.2279 39.5229 27.2307 39.5229C27.2335 39.5229 27.2363 39.5229 27.239 39.5229C27.2418 39.5229 27.2446 39.5229 27.2474 39.5229C27.2501 39.5229 27.2529 39.5229 27.2557 39.5229C27.2585 39.5229 27.2612 39.5229 27.264 39.5229C27.2668 39.5229 27.2696 39.5229 27.2724 39.5229C27.2752 39.5229 27.2779 39.5229 27.2807 39.5229C27.2835 39.5229 27.2863 39.5229 27.2891 39.5229C27.2919 39.5229 27.2947 39.5229 27.2975 39.5229C27.3003 39.5229 27.3031 39.5229 27.3059 39.5229C27.3087 39.5229 27.3115 39.5229 27.3143 39.5229C27.3171 39.5229 27.3199 39.5229 27.3227 39.5229C27.3255 39.5229 27.3283 39.5229 27.3311 39.5229C27.3339 39.5229 27.3367 39.5229 27.3395 39.5229C27.3423 39.5229 27.3451 39.5229 27.3479 39.5229C27.3508 39.5229 27.3536 39.5229 27.3564 39.5229C27.3592 39.5229 27.362 39.5229 27.3648 39.5229C27.3677 39.5229 27.3705 39.5229 27.3733 39.5229C27.3761 39.5229 27.3789 39.5229 27.3818 39.5229C27.3846 39.5229 27.3874 39.5229 27.3902 39.5229C27.3931 39.5229 27.3959 39.5229 27.3987 39.5229C27.4016 39.5229 27.4044 39.5229 27.4072 39.5229C27.4101 39.5229 27.4129 39.5229 27.4157 39.5229C27.4186 39.5229 27.4214 39.5229 27.4243 39.5229C27.4271 39.5229 27.4299 39.5229 27.4328 39.5229C27.4356 39.5229 27.4385 39.5229 27.4413 39.5229C27.4442 39.5229 27.447 39.5229 27.4499 39.5229C27.4527 39.5229 27.4556 39.5229 27.4584 39.5229C27.4613 39.5229 27.4641 39.5229 27.467 39.5229C27.4698 39.5229 27.4727 39.5229 27.4755 39.5229C27.4784 39.5229 27.4813 39.5229 27.4841 39.5229C27.487 39.5229 27.4898 39.5229 27.4927 39.5229C27.4956 39.5229 27.4984 39.5229 27.5013 39.5229C27.5042 39.5229 27.507 39.5229 27.5099 39.5229C27.5128 39.5229 27.5156 39.5229 27.5185 39.5229C27.5214 39.5229 27.5243 39.5229 27.5271 39.5229C27.53 39.5229 27.5329 39.5229 27.5358 39.5229C27.5386 39.5229 27.5415 39.5229 27.5444 39.5229C27.5473 39.5229 27.5502 39.5229 27.553 39.5229C27.5559 39.5229 27.5588 39.5229 27.5617 39.5229C27.5646 39.5229 27.5675 39.5229 27.5704 39.5229C27.5733 39.5229 27.5761 39.5229 27.579 39.5229C27.5819 39.5229 27.5848 39.5229 27.5877 39.5229C27.5906 39.5229 27.5935 39.5229 27.5964 39.5229C27.5993 39.5229 27.6022 39.5229 27.6051 39.5229C27.608 39.5229 27.6109 39.5229 27.6138 39.5229C27.6167 39.5229 27.6196 39.5229 27.6225 39.5229C27.6254 39.5229 27.6283 39.5229 27.6312 39.5229C27.6342 39.5229 27.6371 39.5229 27.64 39.5229C27.6429 39.5229 27.6458 39.5229 27.6487 39.5229C27.6516 39.5229 27.6545 39.5229 27.6575 39.5229C27.6604 39.5229 27.6633 39.5229 27.6662 39.5229C27.6691 39.5229 27.6721 39.5229 27.675 39.5229C27.6779 39.5229 27.6808 39.5229 27.6838 39.5229C27.6867 39.5229 27.6896 39.5229 27.6925 39.5229C27.6955 39.5229 27.6984 39.5229 27.7013 39.5229C27.7043 39.5229 27.7072 39.5229 27.7101 39.5229C27.7131 39.5229 27.716 39.5229 27.7189 39.5229C27.7219 39.5229 27.7248 39.5229 27.7277 39.5229C27.7307 39.5229 27.7336 39.5229 27.7366 39.5229C27.7395 39.5229 27.7424 39.5229 27.7454 39.5229C27.7483 39.5229 27.7513 39.5229 27.7542 39.5229C27.7572 39.5229 27.7601 39.5229 27.7631 39.5229C27.766 39.5229 27.769 39.5229 27.7719 39.5229C27.7749 39.5229 27.7778 39.5229 27.7808 39.5229C27.7837 39.5229 27.7867 39.5229 27.7896 39.5229C27.7926 39.5229 27.7956 39.5229 27.7985 39.5229C27.8015 39.5229 27.8044 39.5229 27.8074 39.5229C27.8104 39.5229 27.8133 39.5229 27.8163 39.5229C27.8193 39.5229 27.8222 39.5229 27.8252 39.5229C27.8282 39.5229 27.8311 39.5229 27.8341 39.5229C27.8371 39.5229 27.84 39.5229 27.843 39.5229C27.846 39.5229 27.849 39.5229 27.8519 39.5229C27.8549 39.5229 27.8579 39.5229 27.8609 39.5229C27.8638 39.5229 27.8668 39.5229 27.8698 39.5229C27.8728 39.5229 27.8758 39.5229 27.8787 39.5229C27.8817 39.5229 27.8847 39.5229 27.8877 39.5229C27.8907 39.5229 27.8937 39.5229 27.8966 39.5229C27.8996 39.5229 27.9026 39.5229 27.9056 39.5229C27.9086 39.5229 27.9116 39.5229 27.9146 39.5229C27.9176 39.5229 27.9206 39.5229 27.9236 39.5229C27.9266 39.5229 27.9296 39.5229 27.9325 39.5229C27.9355 39.5229 27.9385 39.5229 27.9415 39.5229C27.9445 39.5229 27.9475 39.5229 27.9505 39.5229C27.9535 39.5229 27.9566 39.5229 27.9596 39.5229C27.9626 39.5229 27.9656 39.5229 27.9686 39.5229C27.9716 39.5229 27.9746 39.5229 27.9776 39.5229C27.9806 39.5229 27.9836 39.5229 27.9866 39.5229C27.9896 39.5229 27.9927 39.5229 27.9957 39.5229C27.9987 39.5229 28.0017 39.5229 28.0047 39.5229C28.0077 39.5229 28.0107 39.5229 28.0138 39.5229C28.0168 39.5229 28.0198 39.5229 28.0228 39.5229C28.0258 39.5229 28.0289 39.5229 28.0319 39.5229C28.0349 39.5229 28.0379 39.5229 28.041 39.5229C28.044 39.5229 28.047 39.5229 28.05 39.5229C28.0531 39.5229 28.0561 39.5229 28.0591 39.5229C28.0622 39.5229 28.0652 39.5229 28.0682 39.5229C28.0713 39.5229 28.0743 39.5229 28.0773 39.5229C28.0804 39.5229 28.0834 39.5229 28.0864 39.5229C28.0895 39.5229 28.0925 39.5229 28.0956 39.5229C28.0986 39.5229 28.1016 39.5229 28.1047 39.5229C28.1077 39.5229 28.1108 39.5229 28.1138 39.5229C28.1168 39.5229 28.1199 39.5229 28.1229 39.5229C28.126 39.5229 28.129 39.5229 28.1321 39.5229C28.1351 39.5229 28.1382 39.5229 28.1412 39.5229C28.1443 39.5229 28.1473 39.5229 28.1504 39.5229C28.1534 39.5229 28.1565 39.5229 28.1595 39.5229C28.1626 39.5229 28.1657 39.5229 28.1687 39.5229C28.1718 39.5229 28.1748 39.5229 28.1779 39.5229C28.1809 39.5229 28.184 39.5229 28.1871 39.5229C28.1901 39.5229 28.1932 39.5229 28.1963 39.5229C28.1993 39.5229 28.2024 39.5229 28.2055 39.5229C28.2085 39.5229 28.2116 39.5229 28.2147 39.5229C28.2177 39.5229 28.2208 39.5229 28.2239 39.5229C28.2269 39.5229 28.23 39.5229 28.2331 39.5229C28.2361 39.5229 28.2392 39.5229 28.2423 39.5229C28.2454 39.5229 28.2484 39.5229 28.2515 39.5229C28.2546 39.5229 28.2577 39.5229 28.2608 39.5229C28.2638 39.5229 28.2669 39.5229 28.27 39.5229C28.2731 39.5229 28.2762 39.5229 28.2792 39.5229C28.2823 39.5229 28.2854 39.5229 28.2885 39.5229C28.2916 39.5229 28.2947 39.5229 28.2977 39.5229C28.3008 39.5229 28.3039 39.5229 28.307 39.5229C28.3101 39.5229 28.3132 39.5229 28.3163 39.5229C28.3194 39.5229 28.3225 39.5229 28.3256 39.5229C28.3287 39.5229 28.3317 39.5229 28.3348 39.5229C28.3379 39.5229 28.341 39.5229 28.3441 39.5229C28.3472 39.5229 28.3503 39.5229 28.3534 39.5229C28.3565 39.5229 28.3596 39.5229 28.3627 39.5229C28.3658 39.5229 28.3689 39.5229 28.372 39.5229C28.3751 39.5229 28.3782 39.5229 28.3813 39.5229C28.3845 39.5229 28.3876 39.5229 28.3907 39.5229C28.3938 39.5229 28.3969 39.5229 28.4 39.5229C28.4031 39.5229 28.4062 39.5229 28.4093 39.5229C28.4124 39.5229 28.4155 39.5229 28.4187 39.5229C28.4218 39.5229 28.4249 39.5229 28.428 39.5229C28.4311 39.5229 28.4342 39.5229 28.4373 39.5229C28.4405 39.5229 28.4436 39.5229 28.4467 39.5229C28.4498 39.5229 28.4529 39.5229 28.4561 39.5229C28.4592 39.5229 28.4623 39.5229 28.4654 39.5229C28.4685 39.5229 28.4717 39.5229 28.4748 39.5229C28.4779 39.5229 28.481 39.5229 28.4842 39.5229C28.4873 39.5229 28.4904 39.5229 28.4936 39.5229C28.4967 39.5229 28.4998 39.5229 28.5029 39.5229C28.5061 39.5229 28.5092 39.5229 28.5123 39.5229C28.5155 39.5229 28.5186 39.5229 28.5217 39.5229C28.5249 39.5229 28.528 39.5229 28.5311 39.5229C28.5343 39.5229 28.5374 39.5229 28.5405 39.5229C28.5437 39.5229 28.5468 39.5229 28.55 39.5229C28.5531 39.5229 28.5562 39.5229 28.5594 39.5229C28.5625 39.5229 28.5657 39.5229 28.5688 39.5229C28.5719 39.5229 28.5751 39.5229 28.5782 39.5229C28.5814 39.5229 28.5845 39.5229 28.5877 39.5229C28.5908 39.5229 28.594 39.5229 28.5971 39.5229C28.6003 39.5229 28.6034 39.5229 28.6066 39.5229C28.6097 39.5229 28.6129 39.5229 28.616 39.5229C28.6192 39.5229 28.6223 39.5229 28.6255 39.5229C28.6286 39.5229 28.6318 39.5229 28.6349 39.5229C28.6381 39.5229 28.6412 39.5229 28.6444 39.5229C28.6476 39.5229 28.6507 39.5229 28.6539 39.5229C28.657 39.5229 28.6602 39.5229 28.6633 39.5229C28.6665 39.5229 28.6697 39.5229 28.6728 39.5229C28.676 39.5229 28.6792 39.5229 28.6823 39.5229C28.6855 39.5229 28.6886 39.5229 28.6918 39.5229C28.695 39.5229 28.6981 39.5229 28.7013 39.5229C28.7045 39.5229 28.7076 39.5229 28.7108 39.5229C28.714 39.5229 28.7172 39.5229 28.7203 39.5229C28.7235 39.5229 28.7267 39.5229 28.7298 39.5229C28.733 39.5229 28.7362 39.5229 28.7394 39.5229C28.7425 39.5229 28.7457 39.5229 28.7489 39.5229C28.7521 39.5229 28.7552 39.5229 28.7584 39.5229C28.7616 39.5229 28.7648 39.5229 28.7679 39.5229C28.7711 39.5229 28.7743 39.5229 28.7775 39.5229C28.7807 39.5229 28.7838 39.5229 28.787 39.5229C28.7902 39.5229 28.7934 39.5229 28.7966 39.5229C28.7997 39.5229 28.8029 39.5229 28.8061 39.5229C28.8093 39.5229 28.8125 39.5229 28.8157 39.5229C28.8189 39.5229 28.822 39.5229 28.8252 39.5229C28.8284 39.5229 28.8316 39.5229 28.8348 39.5229C28.838 39.5229 28.8412 39.5229 28.8444 39.5229C28.8476 39.5229 28.8507 39.5229 28.8539 39.5229C28.8571 39.5229 28.8603 39.5229 28.8635 39.5229C28.8667 39.5229 28.8699 39.5229 28.8731 39.5229C28.8763 39.5229 28.8795 39.5229 28.8827 39.5229C28.8859 39.5229 28.8891 39.5229 28.8923 39.5229C28.8955 39.5229 28.8987 39.5229 28.9019 39.5229C28.9051 39.5229 28.9083 39.5229 28.9115 39.5229C28.9147 39.5229 28.9179 39.5229 28.9211 39.5229C28.9243 39.5229 28.9275 39.5229 28.9307 39.5229C28.9339 39.5229 28.9371 39.5229 28.9403 39.5229C28.9435 39.5229 28.9467 39.5229 28.9499 39.5229C28.9531 39.5229 28.9563 39.5229 28.9595 39.5229C28.9628 39.5229 28.966 39.5229 28.9692 39.5229C28.9724 39.5229 28.9756 39.5229 28.9788 39.5229C28.982 39.5229 28.9852 39.5229 28.9884 39.5229C28.9916 39.5229 28.9949 39.5229 28.9981 39.5229C29.0013 39.5229 29.0045 39.5229 29.0077 39.5229C29.0109 39.5229 29.0141 39.5229 29.0174 39.5229C29.0206 39.5229 29.0238 39.5229 29.027 39.5229C29.0302 39.5229 29.0334 39.5229 29.0367 39.5229C29.0399 39.5229 29.0431 39.5229 29.0463 39.5229C29.0495 39.5229 29.0528 39.5229 29.056 39.5229C29.0592 39.5229 29.0624 39.5229 29.0657 39.5229C29.0689 39.5229 29.0721 39.5229 29.0753 39.5229C29.0786 39.5229 29.0818 39.5229 29.085 39.5229C29.0882 39.5229 29.0915 39.5229 29.0947 39.5229C29.0979 39.5229 29.1011 39.5229 29.1044 39.5229C29.1076 39.5229 29.1108 39.5229 29.114 39.5229C29.1173 39.5229 29.1205 39.5229 29.1237 39.5229C29.127 39.5229 29.1302 39.5229 29.1334 39.5229C29.1367 39.5229 29.1399 39.5229 29.1431 39.5229C29.1464 39.5229 29.1496 39.5229 29.1528 39.5229C29.1561 39.5229 29.1593 39.5229 29.1625 39.5229C29.1658 39.5229 29.169 39.5229 29.1722 39.5229C29.1755 39.5229 29.1787 39.5229 29.182 39.5229C29.1852 39.5229 29.1884 39.5229 29.1917 39.5229C29.1949 39.5229 29.1981 39.5229 29.2014 39.5229C29.2046 39.5229 29.2079 39.5229 29.2111 39.5229C29.2144 39.5229 29.2176 39.5229 29.2208 39.5229C29.2241 39.5229 29.2273 39.5229 29.2306 39.5229C29.2338 39.5229 29.2371 39.5229 29.2403 39.5229C29.2435 39.5229 29.2468 39.5229 29.25 39.5229C29.2533 39.5229 29.2565 39.5229 29.2598 39.5229C29.263 39.5229 29.2663 39.5229 29.2695 39.5229C29.2728 39.5229 29.276 39.5229 29.2793 39.5229C29.2825 39.5229 29.2858 39.5229 29.289 39.5229C29.2923 39.5229 29.2955 39.5229 29.2988 39.5229C29.302 39.5229 29.3053 39.5229 29.3085 39.5229C29.3118 39.5229 29.315 39.5229 29.3183 39.5229C29.3215 39.5229 29.3248 39.5229 29.328 39.5229C29.3313 39.5229 29.3345 39.5229 29.3378 39.5229C29.3411 39.5229 29.3443 39.5229 29.3476 39.5229C29.3508 39.5229 29.3541 39.5229 29.3573 39.5229C29.3606 39.5229 29.3639 39.5229 29.3671 39.5229C29.3704 39.5229 29.3736 39.5229 29.3769 39.5229C29.3802 39.5229 29.3834 39.5229 29.3867 39.5229C29.3899 39.5229 29.3932 39.5229 29.3965 39.5229C29.3997 39.5229 29.403 39.5229 29.4062 39.5229C29.4095 39.5229 29.4128 39.5229 29.416 39.5229C29.4193 39.5229 29.4226 39.5229 29.4258 39.5229C29.4291 39.5229 29.4324 39.5229 29.4356 39.5229C29.4389 39.5229 29.4421 39.5229 29.4454 39.5229C29.4487 39.5229 29.4519 39.5229 29.4552 39.5229C29.4585 39.5229 29.4618 39.5229 29.465 39.5229C29.4683 39.5229 29.4716 39.5229 29.4748 39.5229C29.4781 39.5229 29.4814 39.5229 29.4846 39.5229C29.4879 39.5229 29.4912 39.5229 29.4944 39.5229C29.4977 39.5229 29.501 39.5229 29.5043 39.5229C29.5075 39.5229 29.5108 39.5229 29.5141 39.5229C29.5173 39.5229 29.5206 39.5229 29.5239 39.5229C29.5272 39.5229 29.5304 39.5229 29.5337 39.5229C29.537 39.5229 29.5403 39.5229 29.5435 39.5229C29.5468 39.5229 29.5501 39.5229 29.5534 39.5229C29.5566 39.5229 29.5599 39.5229 29.5632 39.5229C29.5665 39.5229 29.5697 39.5229 29.573 39.5229C29.5763 39.5229 29.5796 39.5229 29.5829 39.5229C29.5861 39.5229 29.5894 39.5229 29.5927 39.5229C29.596 39.5229 29.5993 39.5229 29.6025 39.5229C29.6058 39.5229 29.6091 39.5229 29.6124 39.5229C29.6157 39.5229 29.6189 39.5229 29.6222 39.5229C29.6255 39.5229 29.6288 39.5229 29.6321 39.5229C29.6353 39.5229 29.6386 39.5229 29.6419 39.5229C29.6452 39.5229 29.6485 39.5229 29.6518 39.5229C29.655 39.5229 29.6583 39.5229 29.6616 39.5229C29.6649 39.5229 29.6682 39.5229 29.6715 39.5229C29.6748 39.5229 29.678 39.5229 29.6813 39.5229C29.6846 39.5229 29.6879 39.5229 29.6912 39.5229C29.6945 39.5229 29.6978 39.5229 29.701 39.5229C29.7043 39.5229 29.7076 39.5229 29.7109 39.5229C29.7142 39.5229 29.7175 39.5229 29.7208 39.5229C29.7241 39.5229 29.7273 39.5229 29.7306 39.5229C29.7339 39.5229 29.7372 39.5229 29.7405 39.5229C29.7438 39.5229 29.7471 39.5229 29.7504 39.5229C29.7537 39.5229 29.757 39.5229 29.7603 39.5229C29.7635 39.5229 29.7668 39.5229 29.7701 39.5229C29.7734 39.5229 29.7767 39.5229 29.78 39.5229C29.7833 39.5229 29.7866 39.5229 29.7899 39.5229C29.7932 39.5229 29.7965 39.5229 29.7998 39.5229C29.8031 39.5229 29.8063 39.5229 29.8096 39.5229C29.8129 39.5229 29.8162 39.5229 29.8195 39.5229C29.8228 39.5229 29.8261 39.5229 29.8294 39.5229C29.8327 39.5229 29.836 39.5229 29.8393 39.5229C29.8426 39.5229 29.8459 39.5229 29.8492 39.5229C29.8525 39.5229 29.8558 39.5229 29.8591 39.5229C29.8624 39.5229 29.8657 39.5229 29.869 39.5229C29.8723 39.5229 29.8756 39.5229 29.8789 39.5229C29.8822 39.5229 29.8855 39.5229 29.8888 39.5229C29.8921 39.5229 29.8954 39.5229 29.8987 39.5229C29.902 39.5229 29.9053 39.5229 29.9085 39.5229C29.9118 39.5229 29.9151 39.5229 29.9184 39.5229C29.9217 39.5229 29.925 39.5229 29.9283 39.5229C29.9317 39.5229 29.935 39.5229 29.9383 39.5229C29.9416 39.5229 29.9449 39.5229 29.9482 39.5229C29.9515 39.5229 29.9548 39.5229 29.9581 39.5229C29.9614 39.5229 29.9647 39.5229 29.968 39.5229C29.9713 39.5229 29.9746 39.5229 29.9779 39.5229C29.9812 39.5229 29.9845 39.5229 29.9878 39.5229C29.9911 39.5229 29.9944 39.5229 29.9977 39.5229C30.001 39.5229 30.0043 39.5229 30.0076 39.5229C30.0109 39.5229 30.0142 39.5229 30.0175 39.5229C30.0208 39.5229 30.0241 39.5229 30.0274 39.5229C30.0307 39.5229 30.034 39.5229 30.0373 39.5229C30.0406 39.5229 30.044 39.5229 30.0473 39.5229C30.0506 39.5229 30.0539 39.5229 30.0572 39.5229C30.0605 39.5229 30.0638 39.5229 30.0671 39.5229C30.0704 39.5229 30.0737 39.5229 30.077 39.5229C30.0803 39.5229 30.0836 39.5229 30.0869 39.5229C30.0902 39.5229 30.0935 39.5229 30.0969 39.5229C30.1002 39.5229 30.1035 39.5229 30.1068 39.5229C30.1101 39.5229 30.1134 39.5229 30.1167 39.5229C30.12 39.5229 30.1233 39.5229 30.1266 39.5229C30.1299 39.5229 30.1332 39.5229 30.1365 39.5229C30.1399 39.5229 30.1432 39.5229 30.1465 39.5229C30.1498 39.5229 30.1531 39.5229 30.1564 39.5229C30.1597 39.5229 30.163 39.5229 30.1663 39.5229C30.1696 39.5229 30.1729 39.5229 30.1763 39.5229C30.1796 39.5229 30.1829 39.5229 30.1862 39.5229C30.1895 39.5229 30.1928 39.5229 30.1961 39.5229C30.1994 39.5229 30.2027 39.5229 30.206 39.5229C30.2093 39.5229 30.2127 39.5229 30.216 39.5229C30.2193 39.5229 30.2226 39.5229 30.2259 39.5229C30.2292 39.5229 30.2325 39.5229 30.2358 39.5229C30.2391 39.5229 30.2424 39.5229 30.2458 39.5229C30.2491 39.5229 30.2524 39.5229 30.2557 39.5229C30.259 39.5229 30.2623 39.5229 30.2656 39.5229C30.2689 39.5229 30.2722 39.5229 30.2756 39.5229C30.2789 39.5229 30.2822 39.5229 30.2855 39.5229C30.2888 39.5229 30.2921 39.5229 30.2954 39.5229C30.2987 39.5229 30.302 39.5229 30.3054 39.5229C30.3087 39.5229 30.312 39.5229 30.3153 39.5229C30.3186 39.5229 30.3219 39.5229 30.3252 39.5229C30.3285 39.5229 30.3319 39.5229 30.3352 39.5229C30.3385 39.5229 30.3418 39.5229 30.3451 39.5229C30.3484 39.5229 30.3517 39.5229 30.355 39.5229C30.3583 39.5229 30.3617 39.5229 30.365 39.5229C30.3683 39.5229 30.3716 39.5229 30.3749 39.5229C30.3782 39.5229 30.3815 39.5229 30.3848 39.5229C30.3882 39.5229 30.3915 39.5229 30.3948 39.5229C30.3981 39.5229 30.4014 39.5229 30.4047 39.5229C30.408 39.5229 30.4113 39.5229 30.4146 39.5229C30.418 39.5229 30.4213 39.5229 30.4246 39.5229C30.4279 39.5229 30.4312 39.5229 30.4345 39.5229C30.4378 39.5229 30.4411 39.5229 30.4445 39.5229C30.4478 39.5229 30.4511 39.5229 30.4544 39.5229C30.4577 39.5229 30.461 39.5229 30.4643 39.5229C30.4676 39.5229 30.471 39.5229 30.4743 39.5229C30.4776 39.5229 30.4809 39.5229 30.4842 39.5229C30.4875 39.5229 30.4908 39.5229 30.4941 39.5229C30.4974 39.5229 30.5008 39.5229 30.5041 39.5229C30.5074 39.5229 30.5107 39.5229 30.514 39.5229C30.5173 39.5229 30.5206 39.5229 30.5239 39.5229C30.5273 39.5229 30.5306 39.5229 30.5339 39.5229C30.5372 39.5229 30.5405 39.5229 30.5438 39.5229C30.5471 39.5229 30.5504 39.5229 30.5537 39.5229C30.5571 39.5229 30.5604 39.5229 30.5637 39.5229C30.567 39.5229 30.5703 39.5229 30.5736 39.5229C30.5769 39.5229 30.5802 39.5229 30.5835 39.5229C30.5869 39.5229 30.5902 39.5229 30.5935 39.5229C30.5968 39.5229 30.6001 39.5229 30.6034 39.5229C30.6067 39.5229 30.61 39.5229 30.6133 39.5229C30.6167 39.5229 30.62 39.5229 30.6233 39.5229C30.6266 39.5229 30.6299 39.5229 30.6332 39.5229C30.6365 39.5229 30.6398 39.5229 30.6431 39.5229C30.6464 39.5229 30.6497 39.5229 30.6531 39.5229C30.6564 39.5229 30.6597 39.5229 30.663 39.5229C30.6663 39.5229 30.6696 39.5229 30.6729 39.5229C30.6762 39.5229 30.6795 39.5229 30.6828 39.5229C30.6862 39.5229 30.6895 39.5229 30.6928 39.5229C30.6961 39.5229 30.6994 39.5229 30.7027 39.5229C30.706 39.5229 30.7093 39.5229 30.7126 39.5229C30.7159 39.5229 30.7192 39.5229 30.7225 39.5229C30.7258 39.5229 30.7292 39.5229 30.7325 39.5229C30.7358 39.5229 30.7391 39.5229 30.7424 39.5229C30.7457 39.5229 30.749 39.5229 30.7523 39.5229C30.7556 39.5229 30.7589 39.5229 30.7622 39.5229C30.7655 39.5229 30.7688 39.5229 30.7721 39.5229C30.7755 39.5229 30.7788 39.5229 30.7821 39.5229C30.7854 39.5229 30.7887 39.5229 30.792 39.5229C30.7953 39.5229 30.7986 39.5229 30.8019 39.5229C30.8052 39.5229 30.8085 39.5229 30.8118 39.5229C30.8151 39.5229 30.8184 39.5229 30.8217 39.5229C30.825 39.5229 30.8283 39.5229 30.8316 39.5229C30.8349 39.5229 30.8382 39.5229 30.8415 39.5229C30.8449 39.5229 30.8482 39.5229 30.8515 39.5229C30.8548 39.5229 30.8581 39.5229 30.8614 39.5229C30.8647 39.5229 30.868 39.5229 30.8713 39.5229C30.8746 39.5229 30.8779 39.5229 30.8812 39.5229C30.8845 39.5229 30.8878 39.5229 30.8911 39.5229C30.8944 39.5229 30.8977 39.5229 30.901 39.5229C30.9043 39.5229 30.9076 39.5229 30.9109 39.5229C30.9142 39.5229 30.9175 39.5229 30.9208 39.5229C30.9241 39.5229 30.9274 39.5229 30.9307 39.5229C30.934 39.5229 30.9373 39.5229 30.9406 39.5229C30.9439 39.5229 30.9472 39.5229 30.9505 39.5229C30.9538 39.5229 30.9571 39.5229 30.9604 39.5229C30.9637 39.5229 30.967 39.5229 30.9703 39.5229C30.9736 39.5229 30.9769 39.5229 30.9802 39.5229C30.9835 39.5229 30.9868 39.5229 30.9901 39.5229C30.9934 39.5229 30.9967 39.5229 30.9999 39.5229C31.0032 39.5229 31.0065 39.5229 31.0098 39.5229C31.0131 39.5229 31.0164 39.5229 31.0197 39.5229C31.023 39.5229 31.0263 39.5229 31.0296 39.5229C31.0329 39.5229 31.0362 39.5229 31.0395 39.5229C31.0428 39.5229 31.0461 39.5229 31.0494 39.5229C31.0527 39.5229 31.056 39.5229 31.0592 39.5229C31.0625 39.5229 31.0658 39.5229 31.0691 39.5229C31.0724 39.5229 31.0757 39.5229 31.079 39.5229C31.0823 39.5229 31.0856 39.5229 31.0889 39.5229C31.0922 39.5229 31.0955 39.5229 31.0987 39.5229C31.102 39.5229 31.1053 39.5229 31.1086 39.5229C31.1119 39.5229 31.1152 39.5229 31.1185 39.5229C31.1218 39.5229 31.1251 39.5229 31.1283 39.5229C31.1316 39.5229 31.1349 39.5229 31.1382 39.5229C31.1415 39.5229 31.1448 39.5229 31.1481 39.5229C31.1514 39.5229 31.1546 39.5229 31.1579 39.5229C31.1612 39.5229 31.1645 39.5229 31.1678 39.5229C31.1711 39.5229 31.1744 39.5229 31.1776 39.5229C31.1809 39.5229 31.1842 39.5229 31.1875 39.5229C31.1908 39.5229 31.1941 39.5229 31.1973 39.5229C31.2006 39.5229 31.2039 39.5229 31.2072 39.5229C31.2105 39.5229 31.2138 39.5229 31.217 39.5229C31.2203 39.5229 31.2236 39.5229 31.2269 39.5229C31.2302 39.5229 31.2334 39.5229 31.2367 39.5229C31.24 39.5229 31.2433 39.5229 31.2466 39.5229C31.2498 39.5229 31.2531 39.5229 31.2564 39.5229C31.2597 39.5229 31.263 39.5229 31.2662 39.5229C31.2695 39.5229 31.2728 39.5229 31.2761 39.5229C31.2793 39.5229 31.2826 39.5229 31.2859 39.5229C31.2892 39.5229 31.2924 39.5229 31.2957 39.5229C31.299 39.5229 31.3023 39.5229 31.3055 39.5229V38.5229C31.3023 38.5229 31.299 38.5229 31.2957 38.5229C31.2924 38.5229 31.2892 38.5229 31.2859 38.5229C31.2826 38.5229 31.2793 38.5229 31.2761 38.5229C31.2728 38.5229 31.2695 38.5229 31.2662 38.5229C31.263 38.5229 31.2597 38.5229 31.2564 38.5229C31.2531 38.5229 31.2498 38.5229 31.2466 38.5229C31.2433 38.5229 31.24 38.5229 31.2367 38.5229C31.2334 38.5229 31.2302 38.5229 31.2269 38.5229C31.2236 38.5229 31.2203 38.5229 31.217 38.5229C31.2138 38.5229 31.2105 38.5229 31.2072 38.5229C31.2039 38.5229 31.2006 38.5229 31.1973 38.5229C31.1941 38.5229 31.1908 38.5229 31.1875 38.5229C31.1842 38.5229 31.1809 38.5229 31.1776 38.5229C31.1744 38.5229 31.1711 38.5229 31.1678 38.5229C31.1645 38.5229 31.1612 38.5229 31.1579 38.5229C31.1546 38.5229 31.1514 38.5229 31.1481 38.5229C31.1448 38.5229 31.1415 38.5229 31.1382 38.5229C31.1349 38.5229 31.1316 38.5229 31.1283 38.5229C31.1251 38.5229 31.1218 38.5229 31.1185 38.5229C31.1152 38.5229 31.1119 38.5229 31.1086 38.5229C31.1053 38.5229 31.102 38.5229 31.0987 38.5229C31.0955 38.5229 31.0922 38.5229 31.0889 38.5229C31.0856 38.5229 31.0823 38.5229 31.079 38.5229C31.0757 38.5229 31.0724 38.5229 31.0691 38.5229C31.0658 38.5229 31.0625 38.5229 31.0592 38.5229C31.056 38.5229 31.0527 38.5229 31.0494 38.5229C31.0461 38.5229 31.0428 38.5229 31.0395 38.5229C31.0362 38.5229 31.0329 38.5229 31.0296 38.5229C31.0263 38.5229 31.023 38.5229 31.0197 38.5229C31.0164 38.5229 31.0131 38.5229 31.0098 38.5229C31.0065 38.5229 31.0032 38.5229 30.9999 38.5229C30.9967 38.5229 30.9934 38.5229 30.9901 38.5229C30.9868 38.5229 30.9835 38.5229 30.9802 38.5229C30.9769 38.5229 30.9736 38.5229 30.9703 38.5229C30.967 38.5229 30.9637 38.5229 30.9604 38.5229C30.9571 38.5229 30.9538 38.5229 30.9505 38.5229C30.9472 38.5229 30.9439 38.5229 30.9406 38.5229C30.9373 38.5229 30.934 38.5229 30.9307 38.5229C30.9274 38.5229 30.9241 38.5229 30.9208 38.5229C30.9175 38.5229 30.9142 38.5229 30.9109 38.5229C30.9076 38.5229 30.9043 38.5229 30.901 38.5229C30.8977 38.5229 30.8944 38.5229 30.8911 38.5229C30.8878 38.5229 30.8845 38.5229 30.8812 38.5229C30.8779 38.5229 30.8746 38.5229 30.8713 38.5229C30.868 38.5229 30.8647 38.5229 30.8614 38.5229C30.8581 38.5229 30.8548 38.5229 30.8515 38.5229C30.8482 38.5229 30.8449 38.5229 30.8415 38.5229C30.8382 38.5229 30.8349 38.5229 30.8316 38.5229C30.8283 38.5229 30.825 38.5229 30.8217 38.5229C30.8184 38.5229 30.8151 38.5229 30.8118 38.5229C30.8085 38.5229 30.8052 38.5229 30.8019 38.5229C30.7986 38.5229 30.7953 38.5229 30.792 38.5229C30.7887 38.5229 30.7854 38.5229 30.7821 38.5229C30.7788 38.5229 30.7755 38.5229 30.7721 38.5229C30.7688 38.5229 30.7655 38.5229 30.7622 38.5229C30.7589 38.5229 30.7556 38.5229 30.7523 38.5229C30.749 38.5229 30.7457 38.5229 30.7424 38.5229C30.7391 38.5229 30.7358 38.5229 30.7325 38.5229C30.7292 38.5229 30.7258 38.5229 30.7225 38.5229C30.7192 38.5229 30.7159 38.5229 30.7126 38.5229C30.7093 38.5229 30.706 38.5229 30.7027 38.5229C30.6994 38.5229 30.6961 38.5229 30.6928 38.5229C30.6895 38.5229 30.6862 38.5229 30.6828 38.5229C30.6795 38.5229 30.6762 38.5229 30.6729 38.5229C30.6696 38.5229 30.6663 38.5229 30.663 38.5229C30.6597 38.5229 30.6564 38.5229 30.6531 38.5229C30.6497 38.5229 30.6464 38.5229 30.6431 38.5229C30.6398 38.5229 30.6365 38.5229 30.6332 38.5229C30.6299 38.5229 30.6266 38.5229 30.6233 38.5229C30.62 38.5229 30.6167 38.5229 30.6133 38.5229C30.61 38.5229 30.6067 38.5229 30.6034 38.5229C30.6001 38.5229 30.5968 38.5229 30.5935 38.5229C30.5902 38.5229 30.5869 38.5229 30.5835 38.5229C30.5802 38.5229 30.5769 38.5229 30.5736 38.5229C30.5703 38.5229 30.567 38.5229 30.5637 38.5229C30.5604 38.5229 30.5571 38.5229 30.5537 38.5229C30.5504 38.5229 30.5471 38.5229 30.5438 38.5229C30.5405 38.5229 30.5372 38.5229 30.5339 38.5229C30.5306 38.5229 30.5273 38.5229 30.5239 38.5229C30.5206 38.5229 30.5173 38.5229 30.514 38.5229C30.5107 38.5229 30.5074 38.5229 30.5041 38.5229C30.5008 38.5229 30.4974 38.5229 30.4941 38.5229C30.4908 38.5229 30.4875 38.5229 30.4842 38.5229C30.4809 38.5229 30.4776 38.5229 30.4743 38.5229C30.471 38.5229 30.4676 38.5229 30.4643 38.5229C30.461 38.5229 30.4577 38.5229 30.4544 38.5229C30.4511 38.5229 30.4478 38.5229 30.4445 38.5229C30.4411 38.5229 30.4378 38.5229 30.4345 38.5229C30.4312 38.5229 30.4279 38.5229 30.4246 38.5229C30.4213 38.5229 30.418 38.5229 30.4146 38.5229C30.4113 38.5229 30.408 38.5229 30.4047 38.5229C30.4014 38.5229 30.3981 38.5229 30.3948 38.5229C30.3915 38.5229 30.3882 38.5229 30.3848 38.5229C30.3815 38.5229 30.3782 38.5229 30.3749 38.5229C30.3716 38.5229 30.3683 38.5229 30.365 38.5229C30.3617 38.5229 30.3583 38.5229 30.355 38.5229C30.3517 38.5229 30.3484 38.5229 30.3451 38.5229C30.3418 38.5229 30.3385 38.5229 30.3352 38.5229C30.3319 38.5229 30.3285 38.5229 30.3252 38.5229C30.3219 38.5229 30.3186 38.5229 30.3153 38.5229C30.312 38.5229 30.3087 38.5229 30.3054 38.5229C30.302 38.5229 30.2987 38.5229 30.2954 38.5229C30.2921 38.5229 30.2888 38.5229 30.2855 38.5229C30.2822 38.5229 30.2789 38.5229 30.2756 38.5229C30.2722 38.5229 30.2689 38.5229 30.2656 38.5229C30.2623 38.5229 30.259 38.5229 30.2557 38.5229C30.2524 38.5229 30.2491 38.5229 30.2458 38.5229C30.2424 38.5229 30.2391 38.5229 30.2358 38.5229C30.2325 38.5229 30.2292 38.5229 30.2259 38.5229C30.2226 38.5229 30.2193 38.5229 30.216 38.5229C30.2127 38.5229 30.2093 38.5229 30.206 38.5229C30.2027 38.5229 30.1994 38.5229 30.1961 38.5229C30.1928 38.5229 30.1895 38.5229 30.1862 38.5229C30.1829 38.5229 30.1796 38.5229 30.1763 38.5229C30.1729 38.5229 30.1696 38.5229 30.1663 38.5229C30.163 38.5229 30.1597 38.5229 30.1564 38.5229C30.1531 38.5229 30.1498 38.5229 30.1465 38.5229C30.1432 38.5229 30.1399 38.5229 30.1365 38.5229C30.1332 38.5229 30.1299 38.5229 30.1266 38.5229C30.1233 38.5229 30.12 38.5229 30.1167 38.5229C30.1134 38.5229 30.1101 38.5229 30.1068 38.5229C30.1035 38.5229 30.1002 38.5229 30.0969 38.5229C30.0935 38.5229 30.0902 38.5229 30.0869 38.5229C30.0836 38.5229 30.0803 38.5229 30.077 38.5229C30.0737 38.5229 30.0704 38.5229 30.0671 38.5229C30.0638 38.5229 30.0605 38.5229 30.0572 38.5229C30.0539 38.5229 30.0506 38.5229 30.0473 38.5229C30.044 38.5229 30.0406 38.5229 30.0373 38.5229C30.034 38.5229 30.0307 38.5229 30.0274 38.5229C30.0241 38.5229 30.0208 38.5229 30.0175 38.5229C30.0142 38.5229 30.0109 38.5229 30.0076 38.5229C30.0043 38.5229 30.001 38.5229 29.9977 38.5229C29.9944 38.5229 29.9911 38.5229 29.9878 38.5229C29.9845 38.5229 29.9812 38.5229 29.9779 38.5229C29.9746 38.5229 29.9713 38.5229 29.968 38.5229C29.9647 38.5229 29.9614 38.5229 29.9581 38.5229C29.9548 38.5229 29.9515 38.5229 29.9482 38.5229C29.9449 38.5229 29.9416 38.5229 29.9383 38.5229C29.935 38.5229 29.9317 38.5229 29.9283 38.5229C29.925 38.5229 29.9217 38.5229 29.9184 38.5229C29.9151 38.5229 29.9118 38.5229 29.9085 38.5229C29.9053 38.5229 29.902 38.5229 29.8987 38.5229C29.8954 38.5229 29.8921 38.5229 29.8888 38.5229C29.8855 38.5229 29.8822 38.5229 29.8789 38.5229C29.8756 38.5229 29.8723 38.5229 29.869 38.5229C29.8657 38.5229 29.8624 38.5229 29.8591 38.5229C29.8558 38.5229 29.8525 38.5229 29.8492 38.5229C29.8459 38.5229 29.8426 38.5229 29.8393 38.5229C29.836 38.5229 29.8327 38.5229 29.8294 38.5229C29.8261 38.5229 29.8228 38.5229 29.8195 38.5229C29.8162 38.5229 29.8129 38.5229 29.8096 38.5229C29.8063 38.5229 29.8031 38.5229 29.7998 38.5229C29.7965 38.5229 29.7932 38.5229 29.7899 38.5229C29.7866 38.5229 29.7833 38.5229 29.78 38.5229C29.7767 38.5229 29.7734 38.5229 29.7701 38.5229C29.7668 38.5229 29.7635 38.5229 29.7603 38.5229C29.757 38.5229 29.7537 38.5229 29.7504 38.5229C29.7471 38.5229 29.7438 38.5229 29.7405 38.5229C29.7372 38.5229 29.7339 38.5229 29.7306 38.5229C29.7273 38.5229 29.7241 38.5229 29.7208 38.5229C29.7175 38.5229 29.7142 38.5229 29.7109 38.5229C29.7076 38.5229 29.7043 38.5229 29.701 38.5229C29.6978 38.5229 29.6945 38.5229 29.6912 38.5229C29.6879 38.5229 29.6846 38.5229 29.6813 38.5229C29.678 38.5229 29.6748 38.5229 29.6715 38.5229C29.6682 38.5229 29.6649 38.5229 29.6616 38.5229C29.6583 38.5229 29.655 38.5229 29.6518 38.5229C29.6485 38.5229 29.6452 38.5229 29.6419 38.5229C29.6386 38.5229 29.6353 38.5229 29.6321 38.5229C29.6288 38.5229 29.6255 38.5229 29.6222 38.5229C29.6189 38.5229 29.6157 38.5229 29.6124 38.5229C29.6091 38.5229 29.6058 38.5229 29.6025 38.5229C29.5993 38.5229 29.596 38.5229 29.5927 38.5229C29.5894 38.5229 29.5861 38.5229 29.5829 38.5229C29.5796 38.5229 29.5763 38.5229 29.573 38.5229C29.5697 38.5229 29.5665 38.5229 29.5632 38.5229C29.5599 38.5229 29.5566 38.5229 29.5534 38.5229C29.5501 38.5229 29.5468 38.5229 29.5435 38.5229C29.5403 38.5229 29.537 38.5229 29.5337 38.5229C29.5304 38.5229 29.5272 38.5229 29.5239 38.5229C29.5206 38.5229 29.5173 38.5229 29.5141 38.5229C29.5108 38.5229 29.5075 38.5229 29.5043 38.5229C29.501 38.5229 29.4977 38.5229 29.4944 38.5229C29.4912 38.5229 29.4879 38.5229 29.4846 38.5229C29.4814 38.5229 29.4781 38.5229 29.4748 38.5229C29.4716 38.5229 29.4683 38.5229 29.465 38.5229C29.4618 38.5229 29.4585 38.5229 29.4552 38.5229C29.4519 38.5229 29.4487 38.5229 29.4454 38.5229C29.4421 38.5229 29.4389 38.5229 29.4356 38.5229C29.4324 38.5229 29.4291 38.5229 29.4258 38.5229C29.4226 38.5229 29.4193 38.5229 29.416 38.5229C29.4128 38.5229 29.4095 38.5229 29.4062 38.5229C29.403 38.5229 29.3997 38.5229 29.3965 38.5229C29.3932 38.5229 29.3899 38.5229 29.3867 38.5229C29.3834 38.5229 29.3802 38.5229 29.3769 38.5229C29.3736 38.5229 29.3704 38.5229 29.3671 38.5229C29.3639 38.5229 29.3606 38.5229 29.3573 38.5229C29.3541 38.5229 29.3508 38.5229 29.3476 38.5229C29.3443 38.5229 29.3411 38.5229 29.3378 38.5229C29.3345 38.5229 29.3313 38.5229 29.328 38.5229C29.3248 38.5229 29.3215 38.5229 29.3183 38.5229C29.315 38.5229 29.3118 38.5229 29.3085 38.5229C29.3053 38.5229 29.302 38.5229 29.2988 38.5229C29.2955 38.5229 29.2923 38.5229 29.289 38.5229C29.2858 38.5229 29.2825 38.5229 29.2793 38.5229C29.276 38.5229 29.2728 38.5229 29.2695 38.5229C29.2663 38.5229 29.263 38.5229 29.2598 38.5229C29.2565 38.5229 29.2533 38.5229 29.25 38.5229C29.2468 38.5229 29.2435 38.5229 29.2403 38.5229C29.2371 38.5229 29.2338 38.5229 29.2306 38.5229C29.2273 38.5229 29.2241 38.5229 29.2208 38.5229C29.2176 38.5229 29.2144 38.5229 29.2111 38.5229C29.2079 38.5229 29.2046 38.5229 29.2014 38.5229C29.1981 38.5229 29.1949 38.5229 29.1917 38.5229C29.1884 38.5229 29.1852 38.5229 29.182 38.5229C29.1787 38.5229 29.1755 38.5229 29.1722 38.5229C29.169 38.5229 29.1658 38.5229 29.1625 38.5229C29.1593 38.5229 29.1561 38.5229 29.1528 38.5229C29.1496 38.5229 29.1464 38.5229 29.1431 38.5229C29.1399 38.5229 29.1367 38.5229 29.1334 38.5229C29.1302 38.5229 29.127 38.5229 29.1237 38.5229C29.1205 38.5229 29.1173 38.5229 29.114 38.5229C29.1108 38.5229 29.1076 38.5229 29.1044 38.5229C29.1011 38.5229 29.0979 38.5229 29.0947 38.5229C29.0915 38.5229 29.0882 38.5229 29.085 38.5229C29.0818 38.5229 29.0786 38.5229 29.0753 38.5229C29.0721 38.5229 29.0689 38.5229 29.0657 38.5229C29.0624 38.5229 29.0592 38.5229 29.056 38.5229C29.0528 38.5229 29.0495 38.5229 29.0463 38.5229C29.0431 38.5229 29.0399 38.5229 29.0367 38.5229C29.0334 38.5229 29.0302 38.5229 29.027 38.5229C29.0238 38.5229 29.0206 38.5229 29.0174 38.5229C29.0141 38.5229 29.0109 38.5229 29.0077 38.5229C29.0045 38.5229 29.0013 38.5229 28.9981 38.5229C28.9949 38.5229 28.9916 38.5229 28.9884 38.5229C28.9852 38.5229 28.982 38.5229 28.9788 38.5229C28.9756 38.5229 28.9724 38.5229 28.9692 38.5229C28.966 38.5229 28.9628 38.5229 28.9595 38.5229C28.9563 38.5229 28.9531 38.5229 28.9499 38.5229C28.9467 38.5229 28.9435 38.5229 28.9403 38.5229C28.9371 38.5229 28.9339 38.5229 28.9307 38.5229C28.9275 38.5229 28.9243 38.5229 28.9211 38.5229C28.9179 38.5229 28.9147 38.5229 28.9115 38.5229C28.9083 38.5229 28.9051 38.5229 28.9019 38.5229C28.8987 38.5229 28.8955 38.5229 28.8923 38.5229C28.8891 38.5229 28.8859 38.5229 28.8827 38.5229C28.8795 38.5229 28.8763 38.5229 28.8731 38.5229C28.8699 38.5229 28.8667 38.5229 28.8635 38.5229C28.8603 38.5229 28.8571 38.5229 28.8539 38.5229C28.8507 38.5229 28.8476 38.5229 28.8444 38.5229C28.8412 38.5229 28.838 38.5229 28.8348 38.5229C28.8316 38.5229 28.8284 38.5229 28.8252 38.5229C28.822 38.5229 28.8189 38.5229 28.8157 38.5229C28.8125 38.5229 28.8093 38.5229 28.8061 38.5229C28.8029 38.5229 28.7997 38.5229 28.7966 38.5229C28.7934 38.5229 28.7902 38.5229 28.787 38.5229C28.7838 38.5229 28.7807 38.5229 28.7775 38.5229C28.7743 38.5229 28.7711 38.5229 28.7679 38.5229C28.7648 38.5229 28.7616 38.5229 28.7584 38.5229C28.7552 38.5229 28.7521 38.5229 28.7489 38.5229C28.7457 38.5229 28.7425 38.5229 28.7394 38.5229C28.7362 38.5229 28.733 38.5229 28.7298 38.5229C28.7267 38.5229 28.7235 38.5229 28.7203 38.5229C28.7172 38.5229 28.714 38.5229 28.7108 38.5229C28.7076 38.5229 28.7045 38.5229 28.7013 38.5229C28.6981 38.5229 28.695 38.5229 28.6918 38.5229C28.6886 38.5229 28.6855 38.5229 28.6823 38.5229C28.6792 38.5229 28.676 38.5229 28.6728 38.5229C28.6697 38.5229 28.6665 38.5229 28.6633 38.5229C28.6602 38.5229 28.657 38.5229 28.6539 38.5229C28.6507 38.5229 28.6476 38.5229 28.6444 38.5229C28.6412 38.5229 28.6381 38.5229 28.6349 38.5229C28.6318 38.5229 28.6286 38.5229 28.6255 38.5229C28.6223 38.5229 28.6192 38.5229 28.616 38.5229C28.6129 38.5229 28.6097 38.5229 28.6066 38.5229C28.6034 38.5229 28.6003 38.5229 28.5971 38.5229C28.594 38.5229 28.5908 38.5229 28.5877 38.5229C28.5845 38.5229 28.5814 38.5229 28.5782 38.5229C28.5751 38.5229 28.5719 38.5229 28.5688 38.5229C28.5657 38.5229 28.5625 38.5229 28.5594 38.5229C28.5562 38.5229 28.5531 38.5229 28.55 38.5229C28.5468 38.5229 28.5437 38.5229 28.5405 38.5229C28.5374 38.5229 28.5343 38.5229 28.5311 38.5229C28.528 38.5229 28.5249 38.5229 28.5217 38.5229C28.5186 38.5229 28.5155 38.5229 28.5123 38.5229C28.5092 38.5229 28.5061 38.5229 28.5029 38.5229C28.4998 38.5229 28.4967 38.5229 28.4936 38.5229C28.4904 38.5229 28.4873 38.5229 28.4842 38.5229C28.481 38.5229 28.4779 38.5229 28.4748 38.5229C28.4717 38.5229 28.4685 38.5229 28.4654 38.5229C28.4623 38.5229 28.4592 38.5229 28.4561 38.5229C28.4529 38.5229 28.4498 38.5229 28.4467 38.5229C28.4436 38.5229 28.4405 38.5229 28.4373 38.5229C28.4342 38.5229 28.4311 38.5229 28.428 38.5229C28.4249 38.5229 28.4218 38.5229 28.4187 38.5229C28.4155 38.5229 28.4124 38.5229 28.4093 38.5229C28.4062 38.5229 28.4031 38.5229 28.4 38.5229C28.3969 38.5229 28.3938 38.5229 28.3907 38.5229C28.3876 38.5229 28.3845 38.5229 28.3813 38.5229C28.3782 38.5229 28.3751 38.5229 28.372 38.5229C28.3689 38.5229 28.3658 38.5229 28.3627 38.5229C28.3596 38.5229 28.3565 38.5229 28.3534 38.5229C28.3503 38.5229 28.3472 38.5229 28.3441 38.5229C28.341 38.5229 28.3379 38.5229 28.3348 38.5229C28.3317 38.5229 28.3287 38.5229 28.3256 38.5229C28.3225 38.5229 28.3194 38.5229 28.3163 38.5229C28.3132 38.5229 28.3101 38.5229 28.307 38.5229C28.3039 38.5229 28.3008 38.5229 28.2977 38.5229C28.2947 38.5229 28.2916 38.5229 28.2885 38.5229C28.2854 38.5229 28.2823 38.5229 28.2792 38.5229C28.2762 38.5229 28.2731 38.5229 28.27 38.5229C28.2669 38.5229 28.2638 38.5229 28.2608 38.5229C28.2577 38.5229 28.2546 38.5229 28.2515 38.5229C28.2484 38.5229 28.2454 38.5229 28.2423 38.5229C28.2392 38.5229 28.2361 38.5229 28.2331 38.5229C28.23 38.5229 28.2269 38.5229 28.2239 38.5229C28.2208 38.5229 28.2177 38.5229 28.2147 38.5229C28.2116 38.5229 28.2085 38.5229 28.2055 38.5229C28.2024 38.5229 28.1993 38.5229 28.1963 38.5229C28.1932 38.5229 28.1901 38.5229 28.1871 38.5229C28.184 38.5229 28.1809 38.5229 28.1779 38.5229C28.1748 38.5229 28.1718 38.5229 28.1687 38.5229C28.1657 38.5229 28.1626 38.5229 28.1595 38.5229C28.1565 38.5229 28.1534 38.5229 28.1504 38.5229C28.1473 38.5229 28.1443 38.5229 28.1412 38.5229C28.1382 38.5229 28.1351 38.5229 28.1321 38.5229C28.129 38.5229 28.126 38.5229 28.1229 38.5229C28.1199 38.5229 28.1168 38.5229 28.1138 38.5229C28.1108 38.5229 28.1077 38.5229 28.1047 38.5229C28.1016 38.5229 28.0986 38.5229 28.0956 38.5229C28.0925 38.5229 28.0895 38.5229 28.0864 38.5229C28.0834 38.5229 28.0804 38.5229 28.0773 38.5229C28.0743 38.5229 28.0713 38.5229 28.0682 38.5229C28.0652 38.5229 28.0622 38.5229 28.0591 38.5229C28.0561 38.5229 28.0531 38.5229 28.05 38.5229C28.047 38.5229 28.044 38.5229 28.041 38.5229C28.0379 38.5229 28.0349 38.5229 28.0319 38.5229C28.0289 38.5229 28.0258 38.5229 28.0228 38.5229C28.0198 38.5229 28.0168 38.5229 28.0138 38.5229C28.0107 38.5229 28.0077 38.5229 28.0047 38.5229C28.0017 38.5229 27.9987 38.5229 27.9957 38.5229C27.9927 38.5229 27.9896 38.5229 27.9866 38.5229C27.9836 38.5229 27.9806 38.5229 27.9776 38.5229C27.9746 38.5229 27.9716 38.5229 27.9686 38.5229C27.9656 38.5229 27.9626 38.5229 27.9596 38.5229C27.9566 38.5229 27.9535 38.5229 27.9505 38.5229C27.9475 38.5229 27.9445 38.5229 27.9415 38.5229C27.9385 38.5229 27.9355 38.5229 27.9325 38.5229C27.9296 38.5229 27.9266 38.5229 27.9236 38.5229C27.9206 38.5229 27.9176 38.5229 27.9146 38.5229C27.9116 38.5229 27.9086 38.5229 27.9056 38.5229C27.9026 38.5229 27.8996 38.5229 27.8966 38.5229C27.8937 38.5229 27.8907 38.5229 27.8877 38.5229C27.8847 38.5229 27.8817 38.5229 27.8787 38.5229C27.8758 38.5229 27.8728 38.5229 27.8698 38.5229C27.8668 38.5229 27.8638 38.5229 27.8609 38.5229C27.8579 38.5229 27.8549 38.5229 27.8519 38.5229C27.849 38.5229 27.846 38.5229 27.843 38.5229C27.84 38.5229 27.8371 38.5229 27.8341 38.5229C27.8311 38.5229 27.8282 38.5229 27.8252 38.5229C27.8222 38.5229 27.8193 38.5229 27.8163 38.5229C27.8133 38.5229 27.8104 38.5229 27.8074 38.5229C27.8044 38.5229 27.8015 38.5229 27.7985 38.5229C27.7956 38.5229 27.7926 38.5229 27.7896 38.5229C27.7867 38.5229 27.7837 38.5229 27.7808 38.5229C27.7778 38.5229 27.7749 38.5229 27.7719 38.5229C27.769 38.5229 27.766 38.5229 27.7631 38.5229C27.7601 38.5229 27.7572 38.5229 27.7542 38.5229C27.7513 38.5229 27.7483 38.5229 27.7454 38.5229C27.7424 38.5229 27.7395 38.5229 27.7366 38.5229C27.7336 38.5229 27.7307 38.5229 27.7277 38.5229C27.7248 38.5229 27.7219 38.5229 27.7189 38.5229C27.716 38.5229 27.7131 38.5229 27.7101 38.5229C27.7072 38.5229 27.7043 38.5229 27.7013 38.5229C27.6984 38.5229 27.6955 38.5229 27.6925 38.5229C27.6896 38.5229 27.6867 38.5229 27.6838 38.5229C27.6808 38.5229 27.6779 38.5229 27.675 38.5229C27.6721 38.5229 27.6691 38.5229 27.6662 38.5229C27.6633 38.5229 27.6604 38.5229 27.6575 38.5229C27.6545 38.5229 27.6516 38.5229 27.6487 38.5229C27.6458 38.5229 27.6429 38.5229 27.64 38.5229C27.6371 38.5229 27.6342 38.5229 27.6312 38.5229C27.6283 38.5229 27.6254 38.5229 27.6225 38.5229C27.6196 38.5229 27.6167 38.5229 27.6138 38.5229C27.6109 38.5229 27.608 38.5229 27.6051 38.5229C27.6022 38.5229 27.5993 38.5229 27.5964 38.5229C27.5935 38.5229 27.5906 38.5229 27.5877 38.5229C27.5848 38.5229 27.5819 38.5229 27.579 38.5229C27.5761 38.5229 27.5733 38.5229 27.5704 38.5229C27.5675 38.5229 27.5646 38.5229 27.5617 38.5229C27.5588 38.5229 27.5559 38.5229 27.553 38.5229C27.5502 38.5229 27.5473 38.5229 27.5444 38.5229C27.5415 38.5229 27.5386 38.5229 27.5358 38.5229C27.5329 38.5229 27.53 38.5229 27.5271 38.5229C27.5243 38.5229 27.5214 38.5229 27.5185 38.5229C27.5156 38.5229 27.5128 38.5229 27.5099 38.5229C27.507 38.5229 27.5042 38.5229 27.5013 38.5229C27.4984 38.5229 27.4956 38.5229 27.4927 38.5229C27.4898 38.5229 27.487 38.5229 27.4841 38.5229C27.4813 38.5229 27.4784 38.5229 27.4755 38.5229C27.4727 38.5229 27.4698 38.5229 27.467 38.5229C27.4641 38.5229 27.4613 38.5229 27.4584 38.5229C27.4556 38.5229 27.4527 38.5229 27.4499 38.5229C27.447 38.5229 27.4442 38.5229 27.4413 38.5229C27.4385 38.5229 27.4356 38.5229 27.4328 38.5229C27.4299 38.5229 27.4271 38.5229 27.4243 38.5229C27.4214 38.5229 27.4186 38.5229 27.4157 38.5229C27.4129 38.5229 27.4101 38.5229 27.4072 38.5229C27.4044 38.5229 27.4016 38.5229 27.3987 38.5229C27.3959 38.5229 27.3931 38.5229 27.3902 38.5229C27.3874 38.5229 27.3846 38.5229 27.3818 38.5229C27.3789 38.5229 27.3761 38.5229 27.3733 38.5229C27.3705 38.5229 27.3677 38.5229 27.3648 38.5229C27.362 38.5229 27.3592 38.5229 27.3564 38.5229C27.3536 38.5229 27.3508 38.5229 27.3479 38.5229C27.3451 38.5229 27.3423 38.5229 27.3395 38.5229C27.3367 38.5229 27.3339 38.5229 27.3311 38.5229C27.3283 38.5229 27.3255 38.5229 27.3227 38.5229C27.3199 38.5229 27.3171 38.5229 27.3143 38.5229C27.3115 38.5229 27.3087 38.5229 27.3059 38.5229C27.3031 38.5229 27.3003 38.5229 27.2975 38.5229C27.2947 38.5229 27.2919 38.5229 27.2891 38.5229C27.2863 38.5229 27.2835 38.5229 27.2807 38.5229C27.2779 38.5229 27.2752 38.5229 27.2724 38.5229C27.2696 38.5229 27.2668 38.5229 27.264 38.5229C27.2612 38.5229 27.2585 38.5229 27.2557 38.5229C27.2529 38.5229 27.2501 38.5229 27.2474 38.5229C27.2446 38.5229 27.2418 38.5229 27.239 38.5229C27.2363 38.5229 27.2335 38.5229 27.2307 38.5229C27.2279 38.5229 27.2252 38.5229 27.2224 38.5229C27.2196 38.5229 27.2169 38.5229 27.2141 38.5229C27.2114 38.5229 27.2086 38.5229 27.2058 38.5229C27.2031 38.5229 27.2003 38.5229 27.1976 38.5229C27.1948 38.5229 27.1921 38.5229 27.1893 38.5229C27.1866 38.5229 27.1838 38.5229 27.1811 38.5229C27.1783 38.5229 27.1756 38.5229 27.1728 38.5229C27.1701 38.5229 27.1673 38.5229 27.1646 38.5229C27.1618 38.5229 27.1591 38.5229 27.1563 38.5229C27.1536 38.5229 27.1509 38.5229 27.1481 38.5229C27.1454 38.5229 27.1427 38.5229 27.1399 38.5229C27.1372 38.5229 27.1345 38.5229 27.1317 38.5229C27.129 38.5229 27.1263 38.5229 27.1235 38.5229C27.1208 38.5229 27.1181 38.5229 27.1154 38.5229C27.1127 38.5229 27.1099 38.5229 27.1072 38.5229C27.1045 38.5229 27.1018 38.5229 27.0991 38.5229C27.0963 38.5229 27.0936 38.5229 27.0909 38.5229C27.0882 38.5229 27.0855 38.5229 27.0828 38.5229C27.0801 38.5229 27.0774 38.5229 27.0747 38.5229C27.0719 38.5229 27.0692 38.5229 27.0665 38.5229C27.0638 38.5229 27.0611 38.5229 27.0584 38.5229C27.0557 38.5229 27.053 38.5229 27.0503 38.5229C27.0476 38.5229 27.0449 38.5229 27.0423 38.5229C27.0396 38.5229 27.0369 38.5229 27.0342 38.5229C27.0315 38.5229 27.0288 38.5229 27.0261 38.5229C27.0234 38.5229 27.0207 38.5229 27.0181 38.5229C27.0154 38.5229 27.0127 38.5229 27.01 38.5229C27.0073 38.5229 27.0047 38.5229 27.002 38.5229C26.9993 38.5229 26.9966 38.5229 26.994 38.5229C26.9913 38.5229 26.9886 38.5229 26.986 38.5229C26.9833 38.5229 26.9806 38.5229 26.978 38.5229C26.9753 38.5229 26.9726 38.5229 26.97 38.5229C26.9673 38.5229 26.9646 38.5229 26.962 38.5229C26.9593 38.5229 26.9567 38.5229 26.954 38.5229C26.9514 38.5229 26.9487 38.5229 26.9461 38.5229C26.9434 38.5229 26.9408 38.5229 26.9381 38.5229C26.9355 38.5229 26.9328 38.5229 26.9302 38.5229C26.9275 38.5229 26.9249 38.5229 26.9222 38.5229C26.9196 38.5229 26.917 38.5229 26.9143 38.5229C26.9117 38.5229 26.9091 38.5229 26.9064 38.5229C26.9038 38.5229 26.9012 38.5229 26.8985 38.5229C26.8959 38.5229 26.8933 38.5229 26.8906 38.5229C26.888 38.5229 26.8854 38.5229 26.8828 38.5229C26.8801 38.5229 26.8775 38.5229 26.8749 38.5229C26.8723 38.5229 26.8697 38.5229 26.8671 38.5229C26.8644 38.5229 26.8618 38.5229 26.8592 38.5229C26.8566 38.5229 26.854 38.5229 26.8514 38.5229C26.8488 38.5229 26.8462 38.5229 26.8436 38.5229C26.841 38.5229 26.8384 38.5229 26.8358 38.5229C26.8332 38.5229 26.8306 38.5229 26.828 38.5229C26.8254 38.5229 26.8228 38.5229 26.8202 38.5229C26.8176 38.5229 26.815 38.5229 26.8124 38.5229C26.8098 38.5229 26.8072 38.5229 26.8046 38.5229C26.802 38.5229 26.7995 38.5229 26.7969 38.5229C26.7943 38.5229 26.7917 38.5229 26.7891 38.5229C26.7866 38.5229 26.784 38.5229 26.7814 38.5229C26.7788 38.5229 26.7763 38.5229 26.7737 38.5229C26.7711 38.5229 26.7685 38.5229 26.766 38.5229C26.7634 38.5229 26.7608 38.5229 26.7583 38.5229C26.7557 38.5229 26.7532 38.5229 26.7506 38.5229C26.748 38.5229 26.7455 38.5229 26.7429 38.5229C26.7404 38.5229 26.7378 38.5229 26.7353 38.5229C26.7327 38.5229 26.7302 38.5229 26.7276 38.5229C26.7251 38.5229 26.7225 38.5229 26.72 38.5229C26.7174 38.5229 26.7149 38.5229 26.7123 38.5229C26.7098 38.5229 26.7073 38.5229 26.7047 38.5229C26.7022 38.5229 26.6996 38.5229 26.6971 38.5229C26.6946 38.5229 26.692 38.5229 26.6895 38.5229C26.687 38.5229 26.6845 38.5229 26.6819 38.5229C26.6794 38.5229 26.6769 38.5229 26.6744 38.5229C26.6718 38.5229 26.6693 38.5229 26.6668 38.5229C26.6643 38.5229 26.6618 38.5229 26.6593 38.5229C26.6567 38.5229 26.6542 38.5229 26.6517 38.5229C26.6492 38.5229 26.6467 38.5229 26.6442 38.5229C26.6417 38.5229 26.6392 38.5229 26.6367 38.5229C26.6342 38.5229 26.6317 38.5229 26.6292 38.5229C26.6267 38.5229 26.6242 38.5229 26.6217 38.5229C26.6192 38.5229 26.6167 38.5229 26.6142 38.5229C26.6117 38.5229 26.6092 38.5229 26.6067 38.5229C26.6043 38.5229 26.6018 38.5229 26.5993 38.5229C26.5968 38.5229 26.5943 38.5229 26.5918 38.5229C26.5894 38.5229 26.5869 38.5229 26.5844 38.5229C26.5819 38.5229 26.5795 38.5229 26.577 38.5229V39.5229ZM28.3347 10.5202H30.9714V9.52016H28.3347V10.5202Z" fill="#00B18B"/>
</svg>
