<svg width="61" height="60" viewBox="0 0 61 60" fill="none" xmlns="http://www.w3.org/2000/svg">
<path d="M54.9382 20.7035L50.069 12.187C49.4348 11.0809 48.5196 10.1614 47.4168 9.52173C46.3136 8.88159 45.0614 8.54406 43.7862 8.54236H40.076V6.50826C40.076 4.78232 39.3903 3.12665 38.17 1.90639C36.9493 0.685694 35.2937 0 33.5677 0H6.50826C4.78231 0 3.12665 0.685694 1.90595 1.90639C0.685694 3.12665 0 4.78242 0 6.50826V26.9494C0 27.7917 0.682709 28.4749 1.52546 28.4749C2.36779 28.4749 3.05092 27.7917 3.05092 26.9494V23.9943H15.0508V26.5165V26.5161C15.0504 27.1013 15.385 27.6355 15.9119 27.89C16.4392 28.1449 17.0653 28.0756 17.5242 27.7121L27.4903 19.8059C27.8551 19.5165 28.0675 19.076 28.0675 18.6099C28.0675 18.1442 27.8551 17.7037 27.4903 17.4142L17.5242 9.50811C17.0654 9.1442 16.4393 9.07524 15.9119 9.3302C15.385 9.58472 15.0504 10.1189 15.0508 10.7041V13.2263L3.05855 13.2259V6.49972C3.05855 5.58291 3.42289 4.70317 4.07112 4.05484C4.71978 3.40619 5.59909 3.04227 6.516 3.04227H33.5755C34.4923 3.04227 35.372 3.40618 36.0203 4.05484C36.669 4.70308 37.0334 5.58281 37.0334 6.49972V30.0005C37.0317 31.1059 36.5915 32.1653 35.81 32.9472C35.0286 33.7286 33.9688 34.1683 32.8634 34.17H1.53264C0.689889 34.17 0.00718085 34.8532 0.00718085 35.6955V44.2383C0.0139909 46.8053 1.00315 49.2726 2.7712 51.1339C4.53932 52.9956 6.95216 54.1099 9.5157 54.2491C9.96729 56.4254 11.3966 58.2722 13.3903 59.2553C15.3839 60.2381 17.719 60.2475 19.7207 59.2809C21.722 58.3138 23.1662 56.4785 23.6352 54.3061H34.3483C34.8148 56.4722 36.2509 58.3033 38.2428 59.2728C40.2352 60.2424 42.5626 60.2424 44.5545 59.2728C46.5469 58.3032 47.983 56.4722 48.4495 54.3061H49.9405C52.6096 54.3027 55.1684 53.2412 57.0562 51.3535C58.9434 49.4663 60.0054 46.9073 60.0084 44.2382V30.0002C60.008 29.7351 59.9377 29.475 59.805 29.2456L54.9382 20.7035ZM16.5838 16.2773C17.4261 16.2773 18.1093 15.5946 18.1093 14.7519V13.861L24.0932 18.6102L18.1093 23.3577V22.4749C18.1093 21.6326 17.4261 20.9495 16.5838 20.9495H3.05844V16.2773L16.5838 16.2773ZM56.9584 34.1764L48.3504 34.1769C47.62 34.1756 47.0284 33.5831 47.0284 32.8528V24.306C47.0297 23.5761 47.6209 22.9849 48.3504 22.984H52.7276L56.9579 30.4079L56.9584 34.1764ZM16.5838 56.9504C15.4772 56.9513 14.4157 56.5121 13.6329 55.7298C12.8502 54.9474 12.41 53.8863 12.41 52.7797C12.41 51.6731 12.8493 50.6116 13.6321 49.8293C14.4144 49.0465 15.4759 48.6073 16.5825 48.6073C17.6891 48.6077 18.7503 49.0474 19.5325 49.8302C20.3148 50.6129 20.7537 51.6744 20.7532 52.781C20.7515 53.8865 20.3118 54.9462 19.5303 55.7277C18.7485 56.5091 17.6891 56.9492 16.5837 56.9506L16.5838 56.9504ZM41.3976 56.9504C40.291 56.9513 39.2295 56.5121 38.4467 55.7298C37.664 54.9474 37.2238 53.8863 37.2238 52.7797C37.2234 51.6731 37.6631 50.6116 38.4454 49.8293C39.2281 49.0465 40.2892 48.6073 41.3959 48.6073C42.5025 48.6077 43.564 49.0474 44.3459 49.8302C45.1282 50.6129 45.5674 51.6744 45.567 52.781C45.5653 53.8865 45.1256 54.9462 44.3437 55.7277C43.5622 56.5091 42.5028 56.9492 41.3975 56.9506L41.3976 56.9504ZM56.9573 44.239C56.9552 46.0994 56.2154 47.8828 54.8998 49.1985C53.5842 50.5137 51.8008 51.2538 49.9403 51.256H48.4557C48.3633 50.8342 48.2326 50.4214 48.0649 50.0234C48.0181 49.9094 47.953 49.8098 47.9002 49.7C47.7683 49.4127 47.6176 49.1339 47.4486 48.8662C47.3593 48.7278 47.2554 48.604 47.1579 48.4737C46.9962 48.2541 46.8221 48.0434 46.637 47.8429C46.5169 47.7148 46.391 47.599 46.2628 47.4807V47.4811C46.0688 47.3024 45.8653 47.1347 45.6529 46.9789C45.5124 46.8733 45.3703 46.7755 45.2196 46.6801V46.6797C44.9906 46.5375 44.7535 46.4086 44.5097 46.2932C44.3551 46.22 44.2066 46.1425 44.0457 46.0774V46.0778C43.7665 45.9727 43.4813 45.8846 43.1915 45.8131C43.0489 45.7765 42.911 45.7258 42.7663 45.6973H42.7667C41.8639 45.513 40.9335 45.513 40.0308 45.6973C39.8844 45.7258 39.7482 45.7765 39.6035 45.8131H39.6039C39.314 45.8846 39.0289 45.9727 38.7497 46.0778C38.5909 46.143 38.4407 46.2204 38.2857 46.2936V46.2932C38.0418 46.4086 37.8048 46.5375 37.5758 46.6797C37.4272 46.7733 37.2851 46.8831 37.1425 46.9785L37.1429 46.9789C36.9297 47.1343 36.7262 47.302 36.5325 47.4811C36.4023 47.599 36.2763 47.7152 36.1563 47.8434V47.8429C35.9711 48.0434 35.7975 48.2541 35.6357 48.4737C35.5383 48.604 35.4323 48.7278 35.3468 48.8662C35.1765 49.1334 35.025 49.4118 34.893 49.7C34.8402 49.8098 34.7751 49.9034 34.7283 50.0234C34.5606 50.4214 34.4299 50.8343 34.338 51.256H23.6437C23.55 50.8342 23.4185 50.4218 23.2508 50.0234C23.2061 49.9115 23.141 49.82 23.0882 49.7021C22.9563 49.4135 22.8047 49.1339 22.6345 48.8662C22.5451 48.7278 22.431 48.604 22.3438 48.4737C22.182 48.2541 22.008 48.0434 21.8232 47.8429C21.7032 47.7148 21.5772 47.599 21.4491 47.4807L21.4487 47.4811C21.2542 47.3024 21.0507 47.1343 20.8387 46.9768C20.6983 46.8729 20.554 46.7733 20.4055 46.6797C20.1765 46.5375 19.9394 46.4086 19.6955 46.2932C19.541 46.22 19.3925 46.1425 19.2316 46.0774L19.232 46.0778C18.9528 45.9723 18.6672 45.8842 18.3778 45.8131C18.2352 45.7765 18.0973 45.7258 17.9504 45.6973C17.0485 45.513 16.1186 45.513 15.217 45.6973C15.0727 45.7258 14.9382 45.7748 14.7961 45.8114H14.7956C14.5028 45.882 14.2147 45.9714 13.9333 46.0795C13.7788 46.1404 13.6303 46.2157 13.4796 46.283H13.48C13.2323 46.3996 12.9918 46.5307 12.7598 46.6758C12.6134 46.7652 12.4751 46.8631 12.3368 46.9648V46.9644C12.1197 47.124 11.912 47.296 11.7145 47.479C11.5906 47.5931 11.4685 47.7046 11.3523 47.8268C11.1608 48.0332 10.9811 48.2503 10.8156 48.4775C10.7219 48.6014 10.6245 48.7197 10.5389 48.8478C10.3601 49.1296 10.2014 49.4233 10.0626 49.7268C10.0179 49.8225 9.95877 49.9098 9.91833 50.0073C9.75362 50.4018 9.6238 50.8104 9.52973 51.2275C7.77022 51.0892 6.1272 50.2933 4.92829 48.9981C3.72885 47.7028 3.06102 46.0041 3.05808 44.2391V37.2217H32.8547C34.7687 37.2192 36.604 36.4577 37.9575 35.1042C39.3111 33.7506 40.0725 31.9153 40.0751 30.0013V11.5944H43.7853C44.5225 11.5957 45.2469 11.7911 45.885 12.161C46.5231 12.5308 47.0525 13.062 47.4199 13.7018L50.9832 19.9338H48.3494C47.1899 19.9347 46.0782 20.3956 45.2585 21.2159C44.4387 22.0356 43.9773 23.1474 43.9765 24.3068V32.8491C43.9773 34.009 44.4387 35.1208 45.2585 35.9409C46.0783 36.7611 47.1896 37.2225 48.3494 37.2241H56.9569L56.9573 44.239Z" fill="#00B18B"/>
</svg>
