<svg width="50" height="50" viewBox="0 0 50 50" fill="none" xmlns="http://www.w3.org/2000/svg">
<circle cx="25" cy="25" r="24" stroke="#00B18B" stroke-width="2"/>
<path d="M17 33C16.45 33 15.9793 32.8043 15.588 32.413C15.196 32.021 15 31.55 15 31V19C15 18.45 15.196 17.9793 15.588 17.588C15.9793 17.196 16.45 17 17 17H33C33.55 17 34.021 17.196 34.413 17.588C34.8043 17.9793 35 18.45 35 19V31C35 31.55 34.8043 32.021 34.413 32.413C34.021 32.8043 33.55 33 33 33H17ZM25 26L17 21V31H33V21L25 26ZM25 24L33 19H17L25 24ZM17 21V19V31V21Z" fill="#00B18B"/>
</svg>
