<svg width="53" height="60" viewBox="0 0 53 60" fill="none" xmlns="http://www.w3.org/2000/svg">
<path d="M1.5257 14.5957C0.683239 14.5957 0 15.2789 0 16.1214V37.2773C0.20987 41.5675 2.21618 45.5711 5.52727 48.307L17.7633 57.4612H17.7629C20.1703 59.1606 23.056 60.049 26.0019 59.9979C28.9481 60.0494 31.834 59.161 34.2409 57.4612L46.4791 48.307C49.788 45.5711 51.7936 41.5695 52.0042 37.2817V16.1214C51.9199 13.9626 51.2218 11.873 49.9915 10.0974C48.7617 8.3218 47.0504 6.93407 45.0594 6.09668L30.8355 0.762739C27.6935 -0.254246 24.3109 -0.254246 21.1688 0.762739L6.94498 6.09668C6.15574 6.39254 5.75602 7.27245 6.05229 8.06167C6.34815 8.85091 7.22806 9.25062 8.01728 8.95478L22.2411 3.62084C24.694 2.87034 27.315 2.87034 29.7678 3.62084L43.9917 8.95478H43.9921C45.3994 9.57587 46.608 10.5741 47.4841 11.8389C48.3602 13.1033 48.8702 14.5855 48.9575 16.1214V37.2774C48.7493 40.6063 47.1951 43.7071 44.6533 45.8662L32.4128 55.008C30.5164 56.2762 28.2861 56.9535 26.0048 56.9535C23.723 56.9535 21.4933 56.2762 19.5968 55.008L7.35414 45.8662C4.81364 43.7074 3.26026 40.6084 3.05168 37.2816V16.1213C3.05168 15.7165 2.89076 15.3287 2.60469 15.0426C2.31862 14.7565 1.93081 14.5956 1.52598 14.5956L1.5257 14.5957Z" fill="#00B18B"/>
<path d="M32.1464 25.4499C31.8599 25.1634 31.4717 25.0025 31.0668 25.0025C30.6624 25.0025 30.2742 25.1634 29.9877 25.4499L24.1127 31.3271L22.0195 29.234V29.2335C21.4214 28.655 20.4696 28.6631 19.8809 29.251C19.2921 29.8393 19.2836 30.7912 19.8613 31.3901L23.0348 34.5637V34.5633C23.6317 35.1575 24.5963 35.1575 25.1931 34.5633L32.1461 27.6083H32.1465C32.7403 27.0114 32.7403 26.0468 32.1464 25.4499Z" fill="#00B18B"/>
<path d="M40.7934 29.9987C40.7913 26.0763 39.2311 22.3153 36.4564 19.5432C33.6813 16.771 29.919 15.2142 25.9967 15.2155C22.0743 15.2172 18.3133 16.7766 15.5403 19.5508C12.7678 22.3251 11.2106 26.087 11.2109 30.0093C11.2118 33.9321 12.7703 37.6936 15.5441 40.4666C18.318 43.24 22.0799 44.798 26.0022 44.798C29.925 44.7938 33.6861 43.2328 36.459 40.4581C39.2324 37.6834 40.7913 33.9216 40.7934 29.9987ZM14.2627 29.9987C14.2648 26.8856 15.5036 23.901 17.7062 21.7005C19.9087 19.5005 22.8949 18.2655 26.0081 18.2668C29.1212 18.2685 32.1062 19.5065 34.3066 21.7086C36.507 23.9103 37.7428 26.8965 37.7424 30.0092C37.7415 33.1223 36.5045 36.1078 34.3028 38.309C32.1011 40.5098 29.1156 41.7465 26.0026 41.7465C22.8886 41.7427 19.9036 40.5035 17.7028 38.301C15.5015 36.0984 14.2644 33.1126 14.2628 29.9986L14.2627 29.9987Z" fill="#00B18B"/>
</svg>
