<svg width="53" height="60" viewBox="0 0 53 60" fill="none" xmlns="http://www.w3.org/2000/svg">
<path d="M6.94642 6.09667L21.1712 0.762792C24.314 -0.254264 27.6977 -0.254264 30.8408 0.762792L45.0635 6.09667C45.788 6.43299 46.1312 7.27121 45.8498 8.01885C45.5684 8.76643 44.7577 9.1704 43.991 8.94523L29.7662 3.61092C27.3131 2.86037 24.6919 2.86037 22.239 3.61092L8.01413 8.94523H8.01371C6.60626 9.56679 5.39804 10.5647 4.52191 11.8295C3.64534 13.094 3.13528 14.5763 3.04809 16.1124V37.2698C3.25584 40.5972 4.8093 43.697 7.35052 45.8549L19.5875 54.9974C21.4845 56.2648 23.7144 56.9409 25.9959 56.9409C28.277 56.9409 30.5074 56.2648 32.4044 54.9974L44.6555 45.8674C47.1954 43.7081 48.7476 40.6088 48.9562 37.2822V16.1204C48.9562 15.2779 49.6395 14.5946 50.482 14.5946C51.3245 14.5946 52.0078 15.2779 52.0078 16.1204V37.2778C51.7975 41.5679 49.7923 45.5715 46.4823 48.3083L34.2454 57.4631C31.837 59.1613 28.9507 60.049 26.0042 59.9979C23.0582 60.0486 20.1726 59.1609 17.7647 57.4631L5.52556 48.3083C2.21642 45.5718 0.210754 41.5691 8.7738e-05 37.28V16.1204C0.0839539 13.962 0.782143 11.8722 2.0125 10.0968C3.24241 8.32107 4.95425 6.93368 6.94543 6.09667H6.94642Z" fill="#919191"/>
<path d="M23.6047 34.5644C23.0061 35.143 22.0546 35.1353 21.4658 34.547C20.8771 33.9586 20.8681 33.0071 21.4463 32.4081L23.8448 30.0096L21.4463 27.6089C20.8681 27.0099 20.8771 26.0584 21.4658 25.4701C22.0546 24.8817 23.0061 24.8741 23.6047 25.4526L26.0033 27.8512L28.3996 25.4526C28.9982 24.8741 29.9497 24.8817 30.5385 25.4701C31.1277 26.0584 31.1362 27.0099 30.5581 27.6089L28.1595 30.0096L30.5581 32.4081C30.8527 32.6925 31.02 33.0833 31.0234 33.4924C31.0268 33.902 30.8659 34.2954 30.5759 34.5845C30.2865 34.874 29.8931 35.0345 29.4839 35.0311C29.0744 35.0272 28.684 34.8591 28.3996 34.5645L26.0032 32.1659L23.6047 34.5644Z" fill="#919191"/>
<path d="M11.2123 29.999C11.2153 26.0764 12.7756 22.3155 15.551 19.5435C18.3263 16.7716 22.0888 15.2152 26.0114 15.2169C29.934 15.2186 33.6949 16.7785 36.4676 19.5529C39.2403 22.3278 40.7976 26.0899 40.7969 30.0126C40.796 33.9352 39.2371 37.6966 36.4629 40.4701C33.6889 43.2433 29.9272 44.8015 26.0046 44.8015C22.0811 44.7968 18.3193 43.2357 15.5462 40.4603C12.7726 37.685 11.2141 33.9225 11.2123 29.999ZM37.7449 29.999C37.742 26.8857 36.503 23.9014 34.3 21.7011C32.0973 19.5014 29.1109 18.2668 25.9975 18.2685C22.8842 18.2702 19.8994 19.5087 17.6987 21.711C15.4985 23.9132 14.2627 26.8992 14.2635 30.0126C14.2644 33.1259 15.5019 36.1111 17.7033 38.3121C19.9052 40.5131 22.8908 41.7499 26.0041 41.7499C29.1187 41.7464 32.1048 40.5072 34.3058 38.3036C36.5072 36.1005 37.744 33.1136 37.7448 29.999H37.7449Z" fill="#919191"/>
</svg>
