<svg width="53" height="60" viewBox="0 0 53 60" fill="none" xmlns="http://www.w3.org/2000/svg">
<path d="M1.5257 14.5957C0.683239 14.5957 0 15.2789 0 16.1214V37.2773C0.20987 41.5675 2.21618 45.5711 5.52727 48.307L17.7633 57.4612H17.7629C20.1703 59.1606 23.056 60.049 26.0019 59.9979C28.9481 60.0494 31.834 59.161 34.2409 57.4612L46.4791 48.307C49.788 45.5711 51.7936 41.5695 52.0042 37.2817V16.1214C51.9199 13.9626 51.2218 11.873 49.9915 10.0974C48.7617 8.3218 47.0504 6.93407 45.0594 6.09668L30.8355 0.762739C27.6935 -0.254246 24.3109 -0.254246 21.1688 0.762739L6.94498 6.09668C6.15574 6.39254 5.75602 7.27245 6.05229 8.06167C6.34815 8.85091 7.22806 9.25062 8.01728 8.95478L22.2411 3.62084C24.694 2.87034 27.315 2.87034 29.7678 3.62084L43.9917 8.95478H43.9921C45.3994 9.57587 46.608 10.5741 47.4841 11.8389C48.3602 13.1033 48.8702 14.5855 48.9575 16.1214V37.2774C48.7493 40.6063 47.1951 43.7071 44.6533 45.8662L32.4128 55.008C30.5164 56.2762 28.2861 56.9535 26.0048 56.9535C23.723 56.9535 21.4933 56.2762 19.5968 55.008L7.35414 45.8662C4.81364 43.7074 3.26026 40.6084 3.05168 37.2816V16.1213C3.05168 15.7165 2.89076 15.3287 2.60469 15.0426C2.31862 14.7565 1.93081 14.5956 1.52598 14.5956L1.5257 14.5957Z" fill="#00B18B"/>
<path d="M37.9999 22.7059C37.9999 21.8599 37.6708 21.0652 37.0729 20.4682L34.5304 17.9251C33.2963 16.6916 31.2888 16.6916 30.0547 17.9251L15.1177 32.8639C14.968 33.0236 14.8595 33.2154 14.7993 33.4262L13.036 40.4973C12.9332 40.91 13.0541 41.3456 13.3545 41.6456C13.6546 41.9472 14.0951 42.0667 14.5023 41.9637L21.5732 40.2003C21.7856 40.1417 21.9774 40.0262 22.1359 39.8821L37.0728 24.9434C37.6709 24.3464 38 23.5517 38 22.7059L37.9999 22.7059ZM28.1729 23.2285L31.7696 26.8258L21.2805 37.3158L17.6837 33.7188L28.1729 23.2285ZM16.6297 36.0863L18.9137 38.3705L15.8706 39.1293L16.6297 36.0863ZM35.3627 23.2327L33.4804 25.1152L29.8837 21.5177L31.7656 19.6357C32.0562 19.3458 32.5296 19.3458 32.8201 19.6357L35.3626 22.1788C35.6516 22.4564 35.6518 22.9553 35.3627 23.2327Z" fill="#00B18B"/>
</svg>
