<svg width="228" height="57" viewBox="0 0 228 57" fill="none" xmlns="http://www.w3.org/2000/svg">
<path fill-rule="evenodd" clip-rule="evenodd" d="M28.3 3.9C41.8 3.9 52.8 14.9 52.8 28.4C52.8 41.9 41.8 52.9 28.3 52.9C14.8 52.9 3.8 41.9 3.8 28.4C3.9 14.8 14.8 3.9 28.3 3.9ZM28.3 0C44 0 56.7 12.7 56.7 28.3C56.7 44 44 56.7 28.3 56.7C12.7 56.7 0 44 0 28.3C0 12.7 12.7 0 28.3 0Z" fill="#00B18B"/>
<path fill-rule="evenodd" clip-rule="evenodd" d="M28.3 10.3C38.3 10.3 46.4 18.4 46.4 28.4C46.4 38.4 38.3 46.5 28.3 46.5C18.3 46.5 10.2 38.4 10.2 28.4C10.3 18.4 18.4 10.3 28.3 10.3ZM28.3 7C40.1 7 49.7 16.6 49.7 28.4C49.7 40.2 40.1 49.8 28.3 49.8C16.6 49.7 7 40.1 7 28.3C7 16.6 16.6 7 28.3 7Z" fill="#00B18B"/>
<path d="M10.8 22.2L11.8 18.9H37.8C39.6 18.9 41.1001 19.5 42.4001 20.8C43.7001 22.1 44.3 23.6 44.3 25.4C44.3 27.2 43.7001 28.7 42.4001 30C41.1001 31.3 39.6 31.9 37.8 31.9H33.9001L45 40.4L44.9001 41.6H41.4001L24.5 28.6H37.9001C38.8001 28.6 39.6 28.3 40.2001 27.7C40.8001 27.1 41.1 26.3 41.1 25.4C41.1 24.5 40.8001 23.7 40.2001 23.1C39.6 22.5 38.8001 22.1 37.9001 22.1H10.8V22.2Z" fill="#00B18B"/>
<path d="M66.8 50.7H65.7V42.7H68.3C68.7 42.7 69.1 42.7 69.4 42.8C69.7 42.9 70.1 43 70.3 43.2C70.6 43.4 70.8 43.6 70.9 43.9C71.1 44.2 71.1 44.5 71.1 44.9C71.1 45.5 70.9 46 70.6 46.3C70.2 46.7 69.8 46.9 69.2 47L71.4 50.7H70L68 47.1H66.8V50.7ZM66.8 46.2H68.1C68.4 46.2 68.6 46.2 68.8 46.1C69 46.1 69.2 46 69.4 45.9C69.6 45.8 69.7 45.7 69.8 45.5C69.9 45.3 69.9 45.1 69.9 44.9C69.9 44.7 69.9 44.5 69.8 44.3C69.7 44.1 69.6 44 69.4 43.9C69.2 43.8 69 43.7 68.8 43.7C68.6 43.7 68.3 43.6 68.1 43.6H66.7V46.2H66.8Z" fill="#00B18B"/>
<path d="M84.9 50.7H83.8V42.7H84.9V50.7Z" fill="#00B18B"/>
<path d="M104.1 44.3C103.9 44 103.6 43.8 103.2 43.7C102.8 43.5 102.4 43.5 101.9 43.5C101.4 43.5 101 43.6 100.6 43.8C100.2 44 99.9001 44.2 99.6001 44.5C99.3001 44.8 99.1001 45.1 99.0001 45.5C98.9001 45.9 98.8001 46.3 98.8001 46.7C98.8001 47.1 98.9001 47.6 99.0001 48C99.1001 48.4 99.3001 48.7 99.6001 49C99.9001 49.3 100.2 49.5 100.6 49.7C101 49.9 101.4 49.9 101.9 49.9C102.3 49.9 102.6 49.9 102.9 49.8C103.2 49.7 103.5 49.6 103.7 49.5V47.3H102V46.3H104.9V50.2C104.5 50.4 104 50.6 103.5 50.7C103 50.8 102.5 50.9 101.9 50.9C101.3 50.9 100.7 50.8 100.2 50.6C99.7001 50.4 99.2001 50.1 98.8001 49.7C98.4001 49.3 98.1001 48.9 97.9001 48.4C97.7001 47.9 97.6001 47.3 97.6001 46.7C97.6001 46.1 97.7001 45.5 97.9001 45C98.1001 44.5 98.4001 44 98.8001 43.7C99.2001 43.3 99.6001 43 100.2 42.8C100.7 42.6 101.3 42.5 101.9 42.5C102.5 42.5 103.1 42.6 103.6 42.8C104.1 43 104.5 43.2 104.9 43.6L104.1 44.3Z" fill="#00B18B"/>
<path d="M118 42.6H119.1V46H123.2V42.6H124.3V50.6H123.2V47H119.1V50.7H118V42.6Z" fill="#00B18B"/>
<path d="M140.2 50.7H139V43.7H136.4V42.7H142.7V43.7H140.1V50.7H140.2Z" fill="#00B18B"/>
<path d="M169.9 50.7H168.8V42.7H169.9V50.7Z" fill="#00B18B"/>
<path d="M183 42.6H185.8C186.3 42.6 186.8 42.7 187.3 42.8C187.8 43 188.3 43.2 188.7 43.5C189.1 43.8 189.5 44.2 189.7 44.7C190 45.2 190.1 45.8 190.1 46.5C190.1 47.2 190 47.8 189.7 48.3C189.4 48.8 189.1 49.2 188.7 49.5C188.3 49.8 187.8 50.1 187.3 50.2C186.8 50.4 186.3 50.4 185.8 50.4H183V42.6ZM184.1 49.7H185.5C186 49.7 186.4 49.6 186.8 49.5C187.2 49.4 187.6 49.2 187.9 48.9C188.2 48.6 188.4 48.3 188.6 47.9C188.8 47.5 188.8 47.1 188.8 46.6C188.8 46.1 188.7 45.7 188.6 45.3C188.4 44.9 188.2 44.6 187.9 44.4C187.6 44.1 187.2 44 186.8 43.8C186.4 43.7 185.9 43.6 185.5 43.6H184.1V49.7Z" fill="#00B18B"/>
<path d="M203.8 49.7H208V50.7H202.7V42.7H207.8V43.7H203.8V46H207.6V47H203.8V49.7Z" fill="#00B18B"/>
<path d="M221 50.7H219.8L223.3 42.7H224.3L227.7 50.7H226.4L225.6 48.7H221.8L221 50.7ZM222.2 47.7H225.2L223.7 43.9L222.2 47.7Z" fill="#00B18B"/>
<path d="M135.1 32.4C137.7 32.4 139.9 31.5 141.7 29.7C143.5 27.9 144.4 25.7 144.4 23.1C144.4 20.5 143.5 18.3 141.7 16.5C139.9 14.7 137.7 13.7 135.1 13.7H114.5V32.4H135.1ZM135.1 9.9C138.7 9.9 141.8 11.2 144.4 13.7C147 16.3 148.2 19.4 148.2 23C148.2 26.6 146.9 29.7 144.4 32.3C141.8 34.9 138.7 36.1 135.1 36.1H110.7V9.9H135.1Z" fill="#00B18B"/>
<path d="M184.1 9.9V13.6H153.8V32.3H187.5V36H150V9.9H184.1ZM184.1 24.9H161.3V21.2H184.1V24.9Z" fill="#00B18B"/>
<path d="M108.8 9.9H105.1V36.1H108.8V9.9Z" fill="#00B18B"/>
<path d="M70.5 13.7L65.7 10H95.7C97.7999 10 99.5 10.7 101 12.2C102.5 13.7 103.2 15.4 103.2 17.5C103.2 19.6 102.5 21.3 101 22.8C99.5 24.3 97.7999 25 95.7 25H91.2L105.8 36.2H99.8L80.3 21.2H95.7C96.7 21.2 97.6 20.8 98.3 20.1C99 19.4 99.4 18.5 99.4 17.4C99.4 16.4 99 15.5 98.3 14.8C97.6 14.1 96.7 13.7 95.7 13.7H70.5Z" fill="#00B18B"/>
<path d="M187.6 9.9H193.7L227.7 36.2H221.7L221.6 36.1H196V32.4H216.8L187.6 9.9Z" fill="#00B18B"/>
<path d="M191.2 9.9H187.5V36.1H191.2V9.9Z" fill="#00B18B"/>
</svg>
