<svg width="85" height="48" viewBox="0 0 85 48" fill="none" xmlns="http://www.w3.org/2000/svg">
<path d="M36.7348 0.000104463C36.2146 -0.00525268 35.714 0.195638 35.3455 0.556581C34.9762 0.917524 34.7701 1.40904 34.7728 1.92131V7.68422H16.4204C7.35682 7.68422 0 14.9994 0 24.0121C0 33.0241 7.35682 40.34 16.4204 40.34H26.0795V40.3393C26.597 40.3474 27.0962 40.1485 27.4648 39.7869C27.8333 39.4259 28.0415 38.9331 28.0415 38.4181C28.0415 37.9038 27.8334 37.4103 27.4648 37.0494C27.0962 36.6884 26.597 36.4896 26.0795 36.4976H16.4204C9.43078 36.4976 3.86332 30.9623 3.86332 24.0114C3.86332 17.0612 9.42992 11.5252 16.4204 11.5252H34.7728V17.2881C34.7701 17.3484 34.7701 17.4087 34.7728 17.4683C34.8374 18.1131 35.2302 18.6823 35.8151 18.979C36.4006 19.2763 37.0993 19.2609 37.6707 18.9388L51.1931 11.2554C51.7901 10.9132 52.1566 10.2844 52.1566 9.60471C52.1566 8.92503 51.7901 8.29623 51.1931 7.95404L37.6707 0.270604C37.387 0.103862 37.0649 0.0108188 36.7348 0.000104463ZM38.6368 5.22268L46.3339 9.60474L38.6368 13.9868V5.22268ZM58.7392 7.68421C58.2265 7.70698 57.7434 7.93197 57.3977 8.30898C57.0514 8.68599 56.8702 9.18488 56.8944 9.69513C56.9187 10.2054 57.1457 10.6849 57.5258 11.0284C57.9058 11.3719 58.4077 11.5507 58.9205 11.5259H68.5796C75.5692 11.5259 81.1367 17.0612 81.1367 24.0121C81.1367 30.9623 75.5701 36.4983 68.5796 36.4983H50.2272V30.7347C50.2299 30.6744 50.2299 30.6148 50.2272 30.5545C50.1625 29.9097 49.7697 29.3412 49.1849 29.0438C48.5994 28.7465 47.9007 28.7619 47.3293 29.084L33.8068 36.7674C33.2099 37.1103 32.8433 37.7384 32.8433 38.4181C32.8433 39.0978 33.2099 39.7266 33.8068 40.0694L47.3293 47.7529C47.9283 48.0857 48.662 48.0823 49.2577 47.7428C49.854 47.4033 50.2225 46.7792 50.2272 46.1022V40.3393H68.5796C77.6432 40.3393 85 33.0241 85 24.0114C85 14.9994 77.6432 7.6835 68.5796 7.6835H58.9205V7.68417C58.8605 7.68082 58.7998 7.68086 58.7392 7.68421ZM46.3634 34.0356V42.7998L38.6663 38.4178L46.3634 34.0356Z" fill="#00B18B"/>
</svg>
