<svg width="146" height="126" viewBox="0 0 146 126" fill="none" xmlns="http://www.w3.org/2000/svg">
<g clip-path="url(#clip0_9_95)">
<path fill-rule="evenodd" clip-rule="evenodd" d="M70.4391 25.746C86.8677 25.746 100.254 39.1323 100.254 55.5608C100.254 71.9894 86.8677 85.3756 70.4391 85.3756C54.0106 85.3756 40.6243 71.9894 40.6243 55.5608C40.746 39.0106 54.0106 25.746 70.4391 25.746ZM70.4391 21C89.5449 21 105 36.455 105 55.4391C105 74.5449 89.5449 89.9999 70.4391 89.9999C51.455 89.9999 36 74.5449 36 55.4391C36 36.455 51.455 21 70.4391 21Z" fill="#00B18B"/>
<path fill-rule="evenodd" clip-rule="evenodd" d="M70.4382 33.1077C82.7953 33.1077 92.8045 42.9015 92.8045 54.9926C92.8045 67.0837 82.7953 76.8775 70.4382 76.8775C58.0812 76.8775 48.0719 67.0837 48.0719 54.9926C48.1955 42.9015 58.2047 33.1077 70.4382 33.1077ZM70.4382 29.1176C85.0196 29.1176 96.8823 40.7251 96.8823 54.9926C96.8823 69.2601 85.0196 80.8676 70.4382 80.8676C55.9805 80.7467 44.1177 69.1392 44.1177 54.8717C44.1177 40.7251 55.9805 29.1176 70.4382 29.1176Z" fill="#00B18B"/>
<path d="M49.1912 48.321L50.4076 44.3382H82.0356C84.2252 44.3382 86.0499 45.0624 87.6313 46.6314C89.2127 48.2003 89.9425 50.0107 89.9425 52.1832C89.9425 54.3556 89.2127 56.166 87.6313 57.735C86.0499 59.304 84.2252 60.0281 82.0356 60.0281H77.2914L90.7941 70.2869L90.6724 71.7352H86.4148L65.8567 56.0453H82.1572C83.252 56.0453 84.2252 55.6832 84.9551 54.9591C85.6849 54.2349 86.0499 53.2694 86.0499 52.1832C86.0499 51.097 85.6849 50.1314 84.9551 49.4073C84.2252 48.6831 83.252 48.2003 82.1572 48.2003H49.1912V48.321Z" fill="#00B18B"/>
<path fill-rule="evenodd" clip-rule="evenodd" d="M-2.56088 25.746C13.8677 25.746 27.2539 39.1323 27.2539 55.5608C27.2539 71.9894 13.8677 85.3756 -2.56088 85.3756C-18.9894 85.3756 -32.3757 71.9894 -32.3757 55.5608C-32.254 39.0106 -18.9894 25.746 -2.56088 25.746ZM-2.56088 21C16.5449 21 31.9999 36.455 31.9999 55.4391C31.9999 74.5449 16.5449 89.9999 -2.56088 89.9999C-21.545 89.9999 -37 74.5449 -37 55.4391C-37 36.455 -21.545 21 -2.56088 21Z" fill="#00B18B"/>
<path fill-rule="evenodd" clip-rule="evenodd" d="M-2.56178 33.1077C9.79528 33.1077 19.8045 42.9015 19.8045 54.9926C19.8045 67.0837 9.79528 76.8775 -2.56178 76.8775C-14.9188 76.8775 -24.9281 67.0837 -24.9281 54.9926C-24.8045 42.9015 -14.7953 33.1077 -2.56178 33.1077ZM-2.56178 29.1176C12.0196 29.1176 23.8823 40.7251 23.8823 54.9926C23.8823 69.2601 12.0196 80.8676 -2.56178 80.8676C-17.0195 80.7467 -28.8823 69.1392 -28.8823 54.8717C-28.8823 40.7251 -17.0195 29.1176 -2.56178 29.1176Z" fill="#00B18B"/>
<path d="M-23.8088 48.321L-22.5924 44.3382H9.03556C11.2252 44.3382 13.0499 45.0624 14.6313 46.6314C16.2127 48.2003 16.9425 50.0107 16.9425 52.1832C16.9425 54.3556 16.2127 56.166 14.6313 57.735C13.0499 59.304 11.2252 60.0281 9.03556 60.0281H4.29137L17.7941 70.2869L17.6724 71.7352H13.4148L-7.14335 56.0453H9.15721C10.252 56.0453 11.2252 55.6832 11.9551 54.9591C12.6849 54.2349 13.0499 53.2694 13.0499 52.1832C13.0499 51.097 12.6849 50.1314 11.9551 49.4073C11.2252 48.6831 10.252 48.2003 9.15721 48.2003H-23.8088V48.321Z" fill="#00B18B"/>
<path fill-rule="evenodd" clip-rule="evenodd" d="M143.439 25.746C159.868 25.746 173.254 39.1323 173.254 55.5608C173.254 71.9894 159.868 85.3756 143.439 85.3756C127.011 85.3756 113.624 71.9894 113.624 55.5608C113.746 39.0106 127.011 25.746 143.439 25.746ZM143.439 21C162.545 21 178 36.455 178 55.4391C178 74.5449 162.545 89.9999 143.439 89.9999C124.455 89.9999 109 74.5449 109 55.4391C109 36.455 124.455 21 143.439 21Z" fill="#00B18B"/>
<path fill-rule="evenodd" clip-rule="evenodd" d="M143.438 33.1077C155.795 33.1077 165.805 42.9015 165.805 54.9926C165.805 67.0837 155.795 76.8775 143.438 76.8775C131.081 76.8775 121.072 67.0837 121.072 54.9926C121.196 42.9015 131.205 33.1077 143.438 33.1077ZM143.438 29.1176C158.02 29.1176 169.882 40.7251 169.882 54.9926C169.882 69.2601 158.02 80.8676 143.438 80.8676C128.98 80.7467 117.118 69.1392 117.118 54.8717C117.118 40.7251 128.98 29.1176 143.438 29.1176Z" fill="#00B18B"/>
<path d="M122.191 48.321L123.408 44.3382H155.036C157.225 44.3382 159.05 45.0624 160.631 46.6314C162.213 48.2003 162.943 50.0107 162.943 52.1832C162.943 54.3556 162.213 56.166 160.631 57.735C159.05 59.304 157.225 60.0281 155.036 60.0281H150.291L163.794 70.2869L163.672 71.7352H159.415L138.857 56.0453H155.157C156.252 56.0453 157.225 55.6832 157.955 54.9591C158.685 54.2349 159.05 53.2694 159.05 52.1832C159.05 51.097 158.685 50.1314 157.955 49.4073C157.225 48.6831 156.252 48.2003 155.157 48.2003H122.191V48.321Z" fill="#00B18B"/>
<path fill-rule="evenodd" clip-rule="evenodd" d="M106.439 88.746C122.868 88.746 136.254 102.132 136.254 118.561C136.254 134.989 122.868 148.376 106.439 148.376C90.0106 148.376 76.6243 134.989 76.6243 118.561C76.746 102.011 90.0106 88.746 106.439 88.746ZM106.439 84C125.545 84 141 99.455 141 118.439C141 137.545 125.545 153 106.439 153C87.455 153 72 137.545 72 118.439C72 99.455 87.455 84 106.439 84Z" fill="#00B18B"/>
<path fill-rule="evenodd" clip-rule="evenodd" d="M106.438 96.1077C118.795 96.1077 128.805 105.902 128.805 117.993C128.805 130.084 118.795 139.878 106.438 139.878C94.0812 139.878 84.0719 130.084 84.0719 117.993C84.1955 105.902 94.2047 96.1077 106.438 96.1077ZM106.438 92.1176C121.02 92.1176 132.882 103.725 132.882 117.993C132.882 132.26 121.02 143.868 106.438 143.868C91.9805 143.747 80.1177 132.139 80.1177 117.872C80.1177 103.725 91.9805 92.1176 106.438 92.1176Z" fill="#00B18B"/>
<path d="M85.1912 111.321L86.4076 107.338H118.036C120.225 107.338 122.05 108.062 123.631 109.631C125.213 111.2 125.943 113.011 125.943 115.183C125.943 117.356 125.213 119.166 123.631 120.735C122.05 122.304 120.225 123.028 118.036 123.028H113.291L126.794 133.287L126.672 134.735H122.415L101.857 119.045H118.157C119.252 119.045 120.225 118.683 120.955 117.959C121.685 117.235 122.05 116.269 122.05 115.183C122.05 114.097 121.685 113.131 120.955 112.407C120.225 111.683 119.252 111.2 118.157 111.2H85.1912V111.321Z" fill="#00B18B"/>
<path fill-rule="evenodd" clip-rule="evenodd" d="M106.439 -37.254C122.868 -37.254 136.254 -23.8677 136.254 -7.43918C136.254 8.98937 122.868 22.3756 106.439 22.3756C90.0106 22.3756 76.6243 8.98937 76.6243 -7.43918C76.746 -23.9894 90.0106 -37.254 106.439 -37.254ZM106.439 -42C125.545 -42 141 -26.545 141 -7.56088C141 11.5449 125.545 26.9999 106.439 26.9999C87.455 26.9999 72 11.5449 72 -7.56088C72 -26.545 87.455 -42 106.439 -42Z" fill="#00B18B"/>
<path fill-rule="evenodd" clip-rule="evenodd" d="M106.438 -29.8923C118.795 -29.8923 128.805 -20.0985 128.805 -8.00738C128.805 4.08373 118.795 13.8775 106.438 13.8775C94.0812 13.8775 84.0719 4.08373 84.0719 -8.00738C84.1955 -20.0985 94.2047 -29.8923 106.438 -29.8923ZM106.438 -33.8824C121.02 -33.8824 132.882 -22.2749 132.882 -8.00738C132.882 6.26013 121.02 17.8676 106.438 17.8676C91.9805 17.7467 80.1177 6.13922 80.1177 -8.12829C80.1177 -22.2749 91.9805 -33.8824 106.438 -33.8824Z" fill="#00B18B"/>
<path d="M85.1912 -14.679L86.4076 -18.6618H118.036C120.225 -18.6618 122.05 -17.9376 123.631 -16.3686C125.213 -14.7997 125.943 -12.9893 125.943 -10.8168C125.943 -8.64437 125.213 -6.83399 123.631 -5.265C122.05 -3.69601 120.225 -2.97186 118.036 -2.97186H113.291L126.794 7.28695L126.672 8.73524H122.415L101.857 -6.95468H118.157C119.252 -6.95468 120.225 -7.31676 120.955 -8.04091C121.685 -8.76506 122.05 -9.7306 122.05 -10.8168C122.05 -11.903 121.685 -12.8686 120.955 -13.5927C120.225 -14.3169 119.252 -14.7997 118.157 -14.7997H85.1912V-14.679Z" fill="#00B18B"/>
<path fill-rule="evenodd" clip-rule="evenodd" d="M34.4391 88.746C50.8677 88.746 64.2539 102.132 64.2539 118.561C64.2539 134.989 50.8677 148.376 34.4391 148.376C18.0106 148.376 4.62433 134.989 4.62433 118.561C4.74603 102.011 18.0106 88.746 34.4391 88.746ZM34.4391 84C53.5449 84 68.9999 99.455 68.9999 118.439C68.9999 137.545 53.5449 153 34.4391 153C15.455 153 0 137.545 0 118.439C0 99.455 15.455 84 34.4391 84Z" fill="#00B18B"/>
<path fill-rule="evenodd" clip-rule="evenodd" d="M34.4382 96.1077C46.7953 96.1077 56.8045 105.902 56.8045 117.993C56.8045 130.084 46.7953 139.878 34.4382 139.878C22.0812 139.878 12.0719 130.084 12.0719 117.993C12.1955 105.902 22.2047 96.1077 34.4382 96.1077ZM34.4382 92.1176C49.0196 92.1176 60.8823 103.725 60.8823 117.993C60.8823 132.26 49.0196 143.868 34.4382 143.868C19.9805 143.747 8.11768 132.139 8.11768 117.872C8.11768 103.725 19.9805 92.1176 34.4382 92.1176Z" fill="#00B18B"/>
<path d="M13.1912 111.321L14.4076 107.338H46.0356C48.2252 107.338 50.0499 108.062 51.6313 109.631C53.2127 111.2 53.9425 113.011 53.9425 115.183C53.9425 117.356 53.2127 119.166 51.6313 120.735C50.0499 122.304 48.2252 123.028 46.0356 123.028H41.2914L54.7941 133.287L54.6724 134.735H50.4148L29.8567 119.045H46.1572C47.252 119.045 48.2252 118.683 48.9551 117.959C49.6849 117.235 50.0499 116.269 50.0499 115.183C50.0499 114.097 49.6849 113.131 48.9551 112.407C48.2252 111.683 47.252 111.2 46.1572 111.2H13.1912V111.321Z" fill="#00B18B"/>
<path fill-rule="evenodd" clip-rule="evenodd" d="M34.4391 -37.254C50.8677 -37.254 64.2539 -23.8677 64.2539 -7.43918C64.2539 8.98937 50.8677 22.3756 34.4391 22.3756C18.0106 22.3756 4.62433 8.98937 4.62433 -7.43918C4.74603 -23.9894 18.0106 -37.254 34.4391 -37.254ZM34.4391 -42C53.5449 -42 68.9999 -26.545 68.9999 -7.56088C68.9999 11.5449 53.5449 26.9999 34.4391 26.9999C15.455 26.9999 0 11.5449 0 -7.56088C0 -26.545 15.455 -42 34.4391 -42Z" fill="#00B18B"/>
<path fill-rule="evenodd" clip-rule="evenodd" d="M34.4382 -29.8923C46.7953 -29.8923 56.8045 -20.0985 56.8045 -8.00738C56.8045 4.08373 46.7953 13.8775 34.4382 13.8775C22.0812 13.8775 12.0719 4.08373 12.0719 -8.00738C12.1955 -20.0985 22.2047 -29.8923 34.4382 -29.8923ZM34.4382 -33.8824C49.0196 -33.8824 60.8823 -22.2749 60.8823 -8.00738C60.8823 6.26013 49.0196 17.8676 34.4382 17.8676C19.9805 17.7467 8.11768 6.13922 8.11768 -8.12829C8.11768 -22.2749 19.9805 -33.8824 34.4382 -33.8824Z" fill="#00B18B"/>
<path d="M13.1912 -14.679L14.4076 -18.6618H46.0356C48.2252 -18.6618 50.0499 -17.9376 51.6313 -16.3686C53.2127 -14.7997 53.9425 -12.9893 53.9425 -10.8168C53.9425 -8.64437 53.2127 -6.83399 51.6313 -5.265C50.0499 -3.69601 48.2252 -2.97186 46.0356 -2.97186H41.2914L54.7941 7.28695L54.6724 8.73524H50.4148L29.8567 -6.95468H46.1572C47.252 -6.95468 48.2252 -7.31676 48.9551 -8.04091C49.6849 -8.76506 50.0499 -9.7306 50.0499 -10.8168C50.0499 -11.903 49.6849 -12.8686 48.9551 -13.5927C48.2252 -14.3169 47.252 -14.7997 46.1572 -14.7997H13.1912V-14.679Z" fill="#00B18B"/>
</g>
<defs>
<clipPath id="clip0_9_95">
<rect width="146" height="126" fill="white"/>
</clipPath>
</defs>
</svg>
