<svg width="50" height="50" viewBox="0 0 50 50" fill="none" xmlns="http://www.w3.org/2000/svg">
<path d="M32 25C32 23.05 31.3207 21.3957 29.962 20.037C28.604 18.679 26.95 18 25 18V16C26.25 16 27.421 16.2373 28.513 16.712C29.6043 17.1873 30.5543 17.8293 31.363 18.638C32.171 19.446 32.8127 20.396 33.288 21.488C33.7627 22.5793 34 23.75 34 25H32ZM28 25C28 24.1667 27.7083 23.4583 27.125 22.875C26.5417 22.2917 25.8333 22 25 22V20C26.3833 20 27.5627 20.4873 28.538 21.462C29.5127 22.4373 30 23.6167 30 25H28ZM32.95 34.05C30.8 34.05 28.7043 33.575 26.663 32.625C24.621 31.675 22.8127 30.4083 21.238 28.825C19.6627 27.2417 18.396 25.429 17.438 23.387C16.4793 21.3457 16 19.25 16 17.1V16.575C16 16.3917 16.0167 16.2167 16.05 16.05H21.9L22.825 21.075L19.975 23.95C20.675 25.15 21.5543 26.275 22.613 27.325C23.671 28.375 24.8333 29.2833 26.1 30.05L29 27.15L34 28.15V34C33.8333 34.0167 33.6583 34.0293 33.475 34.038C33.2917 34.046 33.1167 34.05 32.95 34.05Z" fill="#00B18B"/>
<circle cx="25" cy="25" r="24" stroke="#00B18B" stroke-width="2"/>
</svg>
