<svg width="30" height="30" viewBox="0 0 30 30" fill="none" xmlns="http://www.w3.org/2000/svg">
<path d="M25 5C28.45 8.4 29.75 13.15 28.9333 17.5833C29.6167 18.7833 30 20.1833 30 21.6667C30 23.8768 29.122 25.9964 27.5592 27.5592C25.9964 29.122 23.8768 30 21.6667 30C20.1833 30 18.7833 29.6167 17.5833 28.9333C13.15 29.75 8.4 28.45 5 25C1.55 21.6 0.25 16.85 1.06667 12.4167C0.383334 11.2167 0 9.81667 0 8.33333C0 6.1232 0.877974 4.00358 2.44078 2.44078C4.00358 0.877974 6.1232 0 8.33333 0C9.81667 0 11.2167 0.383334 12.4167 1.06667C16.85 0.25 21.6 1.55 25 5ZM15.0667 23.6C19.85 23.6 22.2333 21.3 22.2333 18.2C22.2333 16.2167 21.3 14.1 17.6833 13.2833L14.3667 12.55C13.1 12.2667 11.6667 11.8833 11.6667 10.7C11.6667 9.5 12.6667 8.66667 14.5 8.66667C18.2167 8.66667 17.8667 11.2167 19.7167 11.2167C20.6833 11.2167 21.5167 10.65 21.5167 9.66667C21.5167 7.38333 17.8667 5.66667 14.7667 5.66667C11.4167 5.66667 7.83333 7.1 7.83333 10.9C7.83333 12.7333 8.48333 14.6833 12.0833 15.5833L16.5667 16.7167C17.9167 17.05 18.25 17.8 18.25 18.5C18.25 19.6333 17.1167 20.75 15.0667 20.75C11.05 20.75 11.6 17.6667 9.45 17.6667C8.48333 17.6667 7.78333 18.3333 7.78333 19.2833C7.78333 21.1333 10 23.6 15.0667 23.6Z" fill="#00AFF0"/>
</svg>
